<svg width="1440" height="1024" viewBox="0 0 1440 1024" fill="none" xmlns="http://www.w3.org/2000/svg">
<g clip-path="url(#clip0_5_940)">
<rect width="1440" height="1024" fill="white" fill-opacity="0.6"/>
<rect width="1440" height="1024" fill="#C3C3C3" fill-opacity="0.3"/>
<path d="M118 229.5L1266 229.5" stroke="#C3C3C3"/>
<path d="M104.746 120.023C104.248 120.023 102.883 119.889 100.652 119.62C100.518 121.382 100.451 123.724 100.451 126.644L100.437 133.093C101.71 133.064 103.008 133.05 104.329 133.05C104.904 133.05 105.378 133.242 105.751 133.625C106.134 134.008 106.326 134.467 106.326 135.004C106.326 135.54 106.134 135.999 105.751 136.382C105.378 136.756 104.904 136.943 104.329 136.943C103.793 136.943 102.989 136.957 101.916 136.986C100.844 137.005 100.039 137.014 99.5031 137.014C98.8711 137.014 97.9231 137.096 96.6591 137.259C95.3952 137.431 94.4472 137.517 93.8152 137.517C93.2407 137.517 92.7619 137.33 92.3789 136.957C92.0054 136.574 91.8187 136.114 91.8187 135.578C91.8187 135.042 92.0054 134.582 92.3789 134.199C92.7619 133.816 93.2407 133.625 93.8152 133.625C94.4663 133.625 95.3233 133.553 96.3862 133.409C96.3671 132.279 96.3575 130.115 96.3575 126.917C96.3575 124.312 96.4533 121.828 96.6448 119.462L93.5279 119.549C92.9534 119.549 92.4698 119.362 92.0772 118.988C91.6942 118.615 91.5027 118.151 91.5027 117.595C91.5027 117.03 91.6942 116.571 92.0772 116.216C92.4315 115.891 92.8672 115.704 93.3843 115.656C94.227 115.58 95.692 115.541 97.7795 115.541C99.6563 115.541 102.074 115.742 105.033 116.145C106.211 116.307 106.8 116.968 106.8 118.127C106.8 118.739 106.56 119.223 106.081 119.577C105.689 119.874 105.244 120.023 104.746 120.023ZM119.87 138.02C118.692 138.02 118.036 137.44 117.902 136.282C117.768 135.296 117.634 134.304 117.5 133.309C117.357 132.255 117.285 131.264 117.285 130.335C117.285 130.086 117.299 129.66 117.328 129.057C117.366 128.454 117.385 128.028 117.385 127.779C117.385 127.712 117.395 127.544 117.414 127.276C117.433 126.998 117.443 126.773 117.443 126.601C117.443 125.806 117.237 125.409 116.825 125.409C115.944 125.409 115.078 125.926 114.225 126.96C113.383 127.985 112.722 129.287 112.243 130.867C112.224 131.183 112.181 131.604 112.114 132.131C112.057 132.562 112.028 132.983 112.028 133.395C112.028 133.663 112.057 134.07 112.114 134.616C112.181 135.152 112.215 135.554 112.215 135.822C112.215 136.368 112.023 136.818 111.64 137.172C111.267 137.536 110.793 137.718 110.218 137.718C109.644 137.718 109.17 137.536 108.796 137.172C108.423 136.818 108.236 136.368 108.236 135.822C108.236 135.554 108.207 135.152 108.15 134.616C108.092 134.07 108.064 133.663 108.064 133.395C108.064 132.476 108.131 131.197 108.265 129.56C108.399 127.922 108.466 126.644 108.466 125.725C108.466 125.438 108.447 125.011 108.408 124.446C108.38 123.872 108.365 123.446 108.365 123.168C108.365 122.632 108.557 122.191 108.94 121.847C109.332 121.492 109.811 121.315 110.376 121.315C111.63 121.315 112.301 122.067 112.387 123.57L112.401 123.728C113.799 122.321 115.274 121.617 116.825 121.617C118.635 121.617 119.885 122.373 120.574 123.886C121.034 124.901 121.263 126.419 121.263 128.439V129.459C121.254 129.9 121.249 130.211 121.249 130.393C121.249 131.14 121.35 132.102 121.551 133.28C121.761 134.458 121.867 135.415 121.867 136.153C121.867 136.689 121.675 137.134 121.292 137.488C120.909 137.843 120.435 138.02 119.87 138.02ZM130.772 122.249C132.055 122.134 132.974 122.077 133.53 122.077C135.32 122.077 136.216 122.689 136.216 123.915C136.216 125.179 135.263 125.782 133.357 125.725C132.754 125.706 131.84 125.749 130.614 125.854C130.576 126.869 130.566 128.162 130.585 129.732C130.624 131.992 130.643 133.28 130.643 133.596C130.643 135.348 130.533 136.737 130.312 137.761C130.092 138.786 129.46 139.298 128.416 139.298C127.88 139.298 127.411 139.126 127.009 138.781C126.616 138.436 126.42 138.001 126.42 137.474C126.42 137.35 126.429 137.23 126.449 137.115C126.678 135.746 126.793 134.458 126.793 133.251V126.07C126.621 126.079 126.305 126.117 125.845 126.184C125.481 126.232 125.204 126.256 125.012 126.256C124.428 126.256 123.945 126.089 123.562 125.754C123.179 125.409 122.987 124.949 122.987 124.375C122.987 123.484 123.456 122.9 124.395 122.622C124.816 122.498 125.654 122.416 126.908 122.378C126.918 122.206 126.98 121.665 127.095 120.755C127.363 118.62 127.942 117.03 128.833 115.987C129.944 114.684 131.648 114.033 133.946 114.033C135.699 114.033 136.575 114.66 136.575 115.915C136.575 117.16 135.761 117.782 134.133 117.782C132.974 117.782 132.132 118.189 131.605 119.003C131.212 119.606 130.949 120.549 130.815 121.832L130.772 122.249ZM144.834 137.847C143.062 137.847 141.54 137.239 140.266 136.023C138.868 134.692 138.136 132.916 138.068 130.695C138.001 128.578 138.581 126.692 139.806 125.035C141.262 123.082 143.287 122.105 145.882 122.105C147.797 122.105 149.32 122.871 150.45 124.403C151.465 125.782 151.972 127.492 151.972 129.531C151.972 131.753 151.378 133.649 150.191 135.219C148.86 136.971 147.074 137.847 144.834 137.847ZM145.695 125.897C144.518 125.888 143.589 126.424 142.909 127.506C142.334 128.416 142.047 129.478 142.047 130.695C142.047 131.844 142.373 132.725 143.024 133.337C143.541 133.826 144.144 134.07 144.834 134.07C145.667 134.07 146.39 133.787 147.002 133.222C147.701 132.562 148.075 131.666 148.123 130.537C148.247 127.453 147.438 125.907 145.695 125.897ZM166.436 126.644C166.35 128.109 165.684 128.842 164.439 128.842C163.233 128.842 162.63 128.219 162.63 126.974L162.558 125.524C160.403 125.868 158.862 126.974 157.933 128.842L157.947 136.066C157.947 136.612 157.761 137.062 157.387 137.417C157.014 137.78 156.54 137.962 155.965 137.962C155.371 137.962 154.912 137.771 154.586 137.388C154.28 137.043 154.127 136.603 154.127 136.066V126.658C154.127 126.362 154.136 125.921 154.155 125.337C154.175 124.743 154.184 124.298 154.184 124.001C154.184 123.465 154.342 123.02 154.658 122.665C154.984 122.302 155.443 122.12 156.037 122.12C157.1 122.12 157.732 122.665 157.933 123.757C159.628 122.493 161.509 121.861 163.578 121.861C165.493 121.861 166.45 123.135 166.45 125.682C166.45 126.17 166.446 126.491 166.436 126.644ZM172.253 124.288C173.699 122.613 175.068 121.775 176.361 121.775C177.836 121.775 178.918 122.335 179.607 123.455C180.191 122.938 180.838 122.551 181.546 122.292C182.255 122.033 183.021 121.904 183.844 121.904C185.721 121.904 186.995 122.838 187.665 124.705C187.799 125.088 188.005 126.386 188.283 128.597C188.551 130.149 188.895 132.734 189.317 136.354C189.355 136.899 189.168 137.35 188.756 137.704C188.345 138.058 187.861 138.235 187.306 138.235C186.205 138.235 185.558 137.689 185.367 136.598C185.194 135.612 185.017 134.218 184.835 132.418C184.644 130.446 184.486 129.048 184.361 128.224C184.103 126.51 183.772 125.653 183.37 125.653C183.15 125.653 182.647 125.873 181.862 126.314C181.077 126.754 180.502 127.132 180.139 127.448C180.139 128.54 180.268 130.11 180.526 132.16C180.794 134.257 180.929 135.827 180.929 136.871C180.929 137.417 180.742 137.871 180.368 138.235C179.995 138.599 179.521 138.781 178.946 138.781C178.372 138.781 177.898 138.599 177.524 138.235C177.151 137.871 176.964 137.417 176.964 136.871C176.964 135.779 176.845 134.175 176.605 132.059C176.375 129.933 176.26 128.325 176.26 127.233C176.26 126.62 176.208 126.132 176.102 125.768C174.992 126.409 173.876 127.477 172.756 128.971C172.708 129.038 172.627 129.138 172.512 129.273C172.473 131.207 172.454 132.725 172.454 133.826C172.454 134.094 172.445 134.458 172.425 134.917C172.406 135.367 172.397 135.703 172.397 135.923C172.397 136.44 172.186 136.847 171.765 137.144C171.382 137.421 170.908 137.56 170.343 137.56C169.529 137.56 168.978 137.206 168.691 136.497C168.49 136.019 168.389 135.257 168.389 134.214V128.87C168.389 128.392 168.37 127.693 168.332 126.773C168.294 125.845 168.274 125.141 168.274 124.662C168.274 123.81 168.428 123.039 168.734 122.349C169.108 121.488 169.634 121.057 170.314 121.057C170.85 121.057 171.329 121.267 171.75 121.689C172.172 122.1 172.382 122.555 172.382 123.053C172.382 122.852 172.339 123.264 172.253 124.288ZM203.795 137.948C203.354 137.948 202.655 137.469 201.698 136.512C200.817 136.933 200.041 137.249 199.371 137.46C198.701 137.68 198.131 137.79 197.662 137.79C195.354 137.79 193.621 137.172 192.462 135.937C191.313 134.702 190.739 132.854 190.739 130.393C190.739 128.085 191.591 126.113 193.295 124.475C195 122.828 197.039 122.005 199.414 122.005C200.324 122.005 201.377 122.263 202.574 122.78C204.02 123.403 204.743 124.126 204.743 124.949C204.743 125.294 204.633 125.596 204.412 125.854C204.317 126.237 204.24 126.721 204.183 127.305C204.135 127.879 204.111 128.554 204.111 129.33C204.111 131.159 204.24 132.476 204.499 133.28C204.527 133.366 204.748 133.864 205.159 134.774C205.533 135.597 205.72 136.066 205.72 136.181C205.72 136.689 205.523 137.11 205.131 137.445C204.748 137.78 204.302 137.948 203.795 137.948ZM200.233 128.095C200.233 127.788 200.252 127.439 200.29 127.046C200.338 126.644 200.405 126.199 200.491 125.71C200.3 125.615 200.127 125.548 199.974 125.509C199.831 125.461 199.706 125.438 199.601 125.438C198.298 125.438 197.159 125.95 196.182 126.974C195.206 127.989 194.717 129.167 194.717 130.508C194.717 131.791 194.947 132.758 195.407 133.409C195.866 134.051 196.556 134.372 197.475 134.372C198.069 134.372 198.629 134.276 199.156 134.084C199.692 133.883 200.194 133.591 200.664 133.208C200.376 130.929 200.233 129.225 200.233 128.095ZM217.397 137.618C217.569 137.914 217.699 138.216 217.785 138.523C217.871 138.829 217.914 139.14 217.914 139.456C217.914 140.682 217.56 141.644 216.851 142.343C216.152 143.042 215.156 143.392 213.864 143.392C212.944 143.392 212.049 143.186 211.178 142.774C210.124 142.276 209.598 141.63 209.598 140.835C209.598 139.983 210.115 139.557 211.149 139.557C211.522 139.557 211.953 139.667 212.442 139.887C212.93 140.117 213.346 140.232 213.691 140.232C213.969 140.222 214.175 140.155 214.309 140.031C214.452 139.916 214.524 139.743 214.524 139.514C214.524 139.217 214.376 138.939 214.079 138.681C213.792 138.422 213.351 138.183 212.758 137.962C211.12 137.598 209.803 136.842 208.808 135.693C207.745 134.477 207.213 133.002 207.213 131.269C207.213 129.325 207.888 127.324 209.239 125.265C210.771 122.91 212.552 121.732 214.582 121.732C215.578 121.732 216.741 122.005 218.072 122.551C219.69 123.211 220.499 123.982 220.499 124.863C220.499 125.342 220.337 125.768 220.011 126.141C219.657 126.544 219.211 126.745 218.675 126.745C218.263 126.745 217.766 126.52 217.181 126.07C216.607 125.61 215.74 125.38 214.582 125.38C213.844 125.38 213.045 126.117 212.183 127.592C211.36 129.009 210.948 130.235 210.948 131.269C210.948 132.294 211.312 133.098 212.039 133.682C212.729 134.237 213.638 134.515 214.768 134.515C215.41 134.515 216.195 134.266 217.124 133.768C218.053 133.27 218.642 133.021 218.891 133.021C219.408 133.021 219.848 133.213 220.212 133.596C220.586 133.969 220.772 134.4 220.772 134.889C220.772 135.387 220.423 135.899 219.724 136.425C219.101 136.895 218.326 137.292 217.397 137.618ZM229.448 137.847C227.676 137.847 226.154 137.239 224.88 136.023C223.482 134.692 222.75 132.916 222.683 130.695C222.616 128.578 223.195 126.692 224.421 125.035C225.876 123.082 227.901 122.105 230.496 122.105C232.411 122.105 233.934 122.871 235.064 124.403C236.079 125.782 236.586 127.492 236.586 129.531C236.586 131.753 235.993 133.649 234.805 135.219C233.474 136.971 231.688 137.847 229.448 137.847ZM230.309 125.897C229.132 125.888 228.203 126.424 227.523 127.506C226.948 128.416 226.661 129.478 226.661 130.695C226.661 131.844 226.987 132.725 227.638 133.337C228.155 133.826 228.758 134.07 229.448 134.07C230.281 134.07 231.004 133.787 231.617 133.222C232.316 132.562 232.689 131.666 232.737 130.537C232.861 127.453 232.052 125.907 230.309 125.897ZM236.471 119.19C235.83 119.735 235.011 120.008 234.015 120.008C232.895 120.008 231.995 119.855 231.315 119.549C230.683 119.261 230.061 118.749 229.448 118.012C229.103 117.6 228.773 117.394 228.457 117.394C227.93 117.394 227.466 117.744 227.063 118.443C226.661 119.132 226.135 119.477 225.483 119.477C225.043 119.477 224.66 119.357 224.334 119.118C223.98 118.859 223.803 118.538 223.803 118.155C223.803 118.031 223.827 117.897 223.875 117.753C224.172 116.863 224.717 116.135 225.512 115.57C226.355 114.976 227.336 114.679 228.457 114.679C229.414 114.679 230.185 114.861 230.769 115.225C231.114 115.436 231.621 115.915 232.292 116.662C232.675 117.083 233.101 117.294 233.57 117.294C233.963 117.294 234.264 117.16 234.475 116.891C234.628 116.614 234.786 116.341 234.949 116.073C234.997 115.919 235.088 115.694 235.222 115.398C235.452 114.986 235.911 114.78 236.601 114.78C237.07 114.78 237.462 114.909 237.778 115.168C238.094 115.426 238.252 115.747 238.252 116.13C238.252 116.484 238.027 117.03 237.577 117.768C237.156 118.447 236.787 118.921 236.471 119.19ZM245.578 137.661C243.289 137.661 241.417 137.115 239.962 136.023C238.353 134.817 237.549 133.117 237.549 130.924C237.549 128.502 238.185 126.453 239.459 124.777C240.876 122.919 242.786 121.99 245.19 121.99C246.856 121.99 248.24 122.258 249.341 122.795C250.787 123.503 251.51 124.604 251.51 126.098C251.51 127.152 250.921 128.085 249.743 128.899C249.207 129.273 248.13 129.818 246.511 130.537L241.671 132.677C242.13 133.175 242.686 133.548 243.337 133.797C243.988 134.046 244.735 134.17 245.578 134.17C246.861 134.17 247.948 133.907 248.838 133.38C249.633 132.911 250.27 132.677 250.748 132.677C251.744 132.677 252.242 133.16 252.242 134.127C252.242 135.219 251.443 136.109 249.844 136.799C248.503 137.373 247.081 137.661 245.578 137.661ZM245.19 125.466C244.299 125.466 243.538 125.763 242.906 126.357C242.274 126.95 241.767 127.841 241.384 129.028C242.466 128.559 243.543 128.095 244.615 127.635C245.908 127.051 246.937 126.51 247.703 126.012C247.062 125.648 246.224 125.466 245.19 125.466ZM264.911 126.486C263.963 126.486 263.393 126.089 263.201 125.294C262.818 125.227 262.426 125.193 262.024 125.193C259.716 125.193 258.562 125.509 258.562 126.141C258.562 126.515 259.256 127.018 260.645 127.65C262.541 128.521 263.824 129.201 264.494 129.689C265.883 130.695 266.577 131.829 266.577 133.093C266.577 134.74 265.811 135.99 264.279 136.842C263.043 137.522 261.526 137.862 259.725 137.862C258.452 137.862 257.289 137.665 256.235 137.273C254.799 136.737 254.081 135.947 254.081 134.903C254.081 133.945 254.65 133.467 255.79 133.467C256.23 133.467 256.867 133.605 257.7 133.883C258.533 134.161 259.175 134.3 259.625 134.3C261.569 134.3 262.545 133.907 262.555 133.122C262.555 132.634 261.88 132.093 260.53 131.499C258.557 130.627 257.293 130 256.738 129.617C255.388 128.669 254.713 127.515 254.713 126.156C254.713 124.231 255.732 122.934 257.772 122.263C258.969 121.871 260.788 121.674 263.23 121.674C264.188 121.674 264.896 121.799 265.356 122.048C265.988 122.383 266.304 123.001 266.304 123.901C266.304 125.624 265.839 126.486 264.911 126.486ZM292.402 122.565C292.526 119.3 292.675 117.045 292.847 115.8C293.01 114.67 293.632 114.105 294.714 114.105C295.279 114.105 295.734 114.287 296.079 114.651C296.424 115.015 296.596 115.46 296.596 115.987C296.596 117.375 296.486 119.443 296.266 122.191C296.055 124.94 295.95 127.008 295.95 128.396C295.95 131.786 296.06 134.056 296.28 135.205C296.309 135.358 296.323 135.497 296.323 135.621C296.323 136.148 296.132 136.583 295.749 136.928C295.366 137.263 294.92 137.431 294.413 137.431C293.704 137.431 293.178 137.115 292.833 136.483C292.182 136.876 291.507 137.168 290.808 137.359C290.109 137.56 289.386 137.661 288.639 137.661C286.494 137.661 284.713 136.976 283.296 135.607C281.85 134.209 281.127 132.428 281.127 130.264C281.127 127.688 281.854 125.61 283.31 124.03C284.765 122.44 286.666 121.646 289.012 121.646C289.73 121.646 290.372 121.722 290.937 121.875C291.502 122.029 291.99 122.258 292.402 122.565ZM292.115 127.089C291.799 126.486 291.387 126.036 290.879 125.739C290.372 125.442 289.769 125.294 289.07 125.294C287.652 125.294 286.59 125.706 285.881 126.529C285.172 127.343 284.818 128.569 284.818 130.206C284.818 131.24 285.201 132.126 285.967 132.863C286.733 133.601 287.624 133.969 288.639 133.969C289.376 133.969 289.936 133.883 290.319 133.711C290.578 133.596 291.018 133.289 291.641 132.792C291.803 132.658 291.961 132.509 292.115 132.346C292.096 131.887 292.096 130.134 292.115 127.089ZM305.099 137.847C303.328 137.847 301.805 137.239 300.532 136.023C299.134 134.692 298.401 132.916 298.334 130.695C298.267 128.578 298.846 126.692 300.072 125.035C301.527 123.082 303.553 122.105 306.148 122.105C308.063 122.105 309.585 122.871 310.715 124.403C311.73 125.782 312.238 127.492 312.238 129.531C312.238 131.753 311.644 133.649 310.457 135.219C309.126 136.971 307.34 137.847 305.099 137.847ZM305.961 125.897C304.783 125.888 303.854 126.424 303.174 127.506C302.6 128.416 302.313 129.478 302.313 130.695C302.313 131.844 302.638 132.725 303.289 133.337C303.806 133.826 304.41 134.07 305.099 134.07C305.932 134.07 306.655 133.787 307.268 133.222C307.967 132.562 308.34 131.666 308.388 130.537C308.513 127.453 307.704 125.907 305.961 125.897ZM331.887 128.985C331.724 128.985 331.322 128.952 330.68 128.885C330.623 130.225 330.594 132.428 330.594 135.492C330.594 135.999 330.417 136.435 330.062 136.799C329.708 137.163 329.258 137.345 328.712 137.345C328.167 137.345 327.712 137.163 327.348 136.799C326.994 136.435 326.816 135.999 326.816 135.492V131.484C326.816 130 326.912 127.803 327.104 124.892C327.286 121.933 327.381 119.726 327.391 118.27C327.4 115.781 328.099 114.588 329.488 114.694C329.813 114.608 330.264 114.545 330.838 114.507C331.413 114.459 332.112 114.435 332.935 114.435C334.812 114.435 336.574 115.043 338.221 116.259C340.05 117.619 340.964 119.276 340.964 121.229C340.964 123.68 339.992 125.629 338.048 127.075C336.325 128.349 334.271 128.985 331.887 128.985ZM332.605 118.141C332.298 118.141 332.025 118.146 331.786 118.155C331.556 118.155 331.36 118.165 331.197 118.184C331.197 118.634 331.192 119.309 331.183 120.209C331.164 121.272 331.073 122.929 330.91 125.179C331.398 125.256 331.724 125.294 331.887 125.294C333.38 125.294 334.62 124.94 335.607 124.231C336.66 123.475 337.187 122.474 337.187 121.229C337.187 120.415 336.694 119.692 335.707 119.06C334.759 118.447 333.725 118.141 332.605 118.141ZM355.5 137.948C355.059 137.948 354.36 137.469 353.403 136.512C352.522 136.933 351.746 137.249 351.076 137.46C350.406 137.68 349.836 137.79 349.367 137.79C347.059 137.79 345.326 137.172 344.167 135.937C343.018 134.702 342.444 132.854 342.444 130.393C342.444 128.085 343.296 126.113 345 124.475C346.705 122.828 348.744 122.005 351.119 122.005C352.029 122.005 353.082 122.263 354.279 122.78C355.725 123.403 356.448 124.126 356.448 124.949C356.448 125.294 356.338 125.596 356.117 125.854C356.022 126.237 355.945 126.721 355.888 127.305C355.84 127.879 355.816 128.554 355.816 129.33C355.816 131.159 355.945 132.476 356.204 133.28C356.232 133.366 356.453 133.864 356.864 134.774C357.238 135.597 357.425 136.066 357.425 136.181C357.425 136.689 357.228 137.11 356.836 137.445C356.453 137.78 356.007 137.948 355.5 137.948ZM351.938 128.095C351.938 127.788 351.957 127.439 351.995 127.046C352.043 126.644 352.11 126.199 352.196 125.71C352.005 125.615 351.832 125.548 351.679 125.509C351.536 125.461 351.411 125.438 351.306 125.438C350.003 125.438 348.864 125.95 347.887 126.974C346.911 127.989 346.422 129.167 346.422 130.508C346.422 131.791 346.652 132.758 347.112 133.409C347.571 134.051 348.261 134.372 349.18 134.372C349.774 134.372 350.334 134.276 350.86 134.084C351.397 133.883 351.899 133.591 352.369 133.208C352.081 130.929 351.938 129.225 351.938 128.095ZM366.057 137.905C363.95 137.905 362.184 137.306 360.757 136.109C359.253 134.846 358.502 133.179 358.502 131.111C358.502 129.206 359.177 127.238 360.527 125.208C362.059 122.89 363.84 121.732 365.87 121.732C366.866 121.732 368.029 122 369.36 122.536C370.979 123.197 371.788 123.958 371.788 124.82C371.788 125.289 371.625 125.706 371.299 126.07C370.955 126.462 370.509 126.658 369.964 126.658C369.552 126.658 369.054 126.438 368.47 125.998C367.895 125.548 367.029 125.323 365.87 125.323C365.133 125.323 364.333 126.046 363.471 127.492C362.648 128.89 362.236 130.096 362.236 131.111C362.236 132.116 362.6 132.906 363.328 133.481C364.017 134.027 364.927 134.3 366.057 134.3C366.698 134.3 367.484 134.056 368.412 133.567C369.341 133.079 369.93 132.835 370.179 132.835C370.696 132.835 371.137 133.021 371.501 133.395C371.874 133.768 372.061 134.194 372.061 134.673C372.061 135.42 371.247 136.167 369.619 136.914C368.163 137.575 366.976 137.905 366.057 137.905ZM377.835 119.735C377.222 119.735 376.69 119.529 376.24 119.118C375.79 118.706 375.565 118.203 375.565 117.61C375.565 117.016 375.79 116.513 376.24 116.101C376.69 115.69 377.222 115.484 377.835 115.484C378.448 115.484 378.974 115.69 379.415 116.101C379.865 116.513 380.09 117.016 380.09 117.61C380.09 118.203 379.865 118.706 379.415 119.118C378.974 119.529 378.448 119.735 377.835 119.735ZM379.056 130.264C379.056 130.809 379.07 131.686 379.099 132.892C379.137 134.099 379.156 134.975 379.156 135.521C379.156 136.076 378.969 136.536 378.596 136.899C378.223 137.254 377.749 137.431 377.174 137.431C376.599 137.431 376.126 137.254 375.752 136.899C375.379 136.536 375.192 136.076 375.192 135.521C375.192 134.975 375.173 134.099 375.134 132.892C375.106 131.686 375.091 130.809 375.091 130.264C375.091 129.411 375.139 128.344 375.235 127.061C375.331 125.777 375.379 124.71 375.379 123.858C375.379 123.302 375.565 122.847 375.939 122.493C376.312 122.129 376.786 121.947 377.361 121.947C377.935 121.947 378.409 122.129 378.783 122.493C379.156 122.847 379.343 123.302 379.343 123.858C379.343 124.71 379.295 125.777 379.199 127.061C379.103 128.344 379.056 129.411 379.056 130.264ZM390.044 137.661C387.755 137.661 385.883 137.115 384.427 136.023C382.819 134.817 382.014 133.117 382.014 130.924C382.014 128.502 382.651 126.453 383.925 124.777C385.342 122.919 387.252 121.99 389.656 121.99C391.322 121.99 392.706 122.258 393.807 122.795C395.253 123.503 395.976 124.604 395.976 126.098C395.976 127.152 395.387 128.085 394.209 128.899C393.673 129.273 392.595 129.818 390.977 130.537L386.137 132.677C386.596 133.175 387.152 133.548 387.803 133.797C388.454 134.046 389.201 134.17 390.044 134.17C391.327 134.17 392.413 133.907 393.304 133.38C394.099 132.911 394.736 132.677 395.214 132.677C396.21 132.677 396.708 133.16 396.708 134.127C396.708 135.219 395.909 136.109 394.309 136.799C392.969 137.373 391.547 137.661 390.044 137.661ZM389.656 125.466C388.765 125.466 388.004 125.763 387.372 126.357C386.74 126.95 386.232 127.841 385.849 129.028C386.931 128.559 388.009 128.095 389.081 127.635C390.374 127.051 391.403 126.51 392.169 126.012C391.528 125.648 390.69 125.466 389.656 125.466ZM410.583 138.02C409.405 138.02 408.749 137.44 408.615 136.282C408.481 135.296 408.347 134.304 408.213 133.309C408.069 132.255 407.998 131.264 407.998 130.335C407.998 130.086 408.012 129.66 408.041 129.057C408.079 128.454 408.098 128.028 408.098 127.779C408.098 127.712 408.108 127.544 408.127 127.276C408.146 126.998 408.156 126.773 408.156 126.601C408.156 125.806 407.95 125.409 407.538 125.409C406.657 125.409 405.79 125.926 404.938 126.96C404.096 127.985 403.435 129.287 402.956 130.867C402.937 131.183 402.894 131.604 402.827 132.131C402.769 132.562 402.741 132.983 402.741 133.395C402.741 133.663 402.769 134.07 402.827 134.616C402.894 135.152 402.927 135.554 402.927 135.822C402.927 136.368 402.736 136.818 402.353 137.172C401.979 137.536 401.505 137.718 400.931 137.718C400.356 137.718 399.882 137.536 399.509 137.172C399.135 136.818 398.949 136.368 398.949 135.822C398.949 135.554 398.92 135.152 398.863 134.616C398.805 134.07 398.776 133.663 398.776 133.395C398.776 132.476 398.843 131.197 398.977 129.56C399.112 127.922 399.179 126.644 399.179 125.725C399.179 125.438 399.159 125.011 399.121 124.446C399.092 123.872 399.078 123.446 399.078 123.168C399.078 122.632 399.27 122.191 399.653 121.847C400.045 121.492 400.524 121.315 401.089 121.315C402.343 121.315 403.014 122.067 403.1 123.57L403.114 123.728C404.512 122.321 405.987 121.617 407.538 121.617C409.348 121.617 410.597 122.373 411.287 123.886C411.746 124.901 411.976 126.419 411.976 128.439V129.459C411.967 129.9 411.962 130.211 411.962 130.393C411.962 131.14 412.062 132.102 412.264 133.28C412.474 134.458 412.579 135.415 412.579 136.153C412.579 136.689 412.388 137.134 412.005 137.488C411.622 137.843 411.148 138.02 410.583 138.02ZM424.803 125.438C424.602 125.438 424.362 125.433 424.085 125.423C423.816 125.404 423.582 125.394 423.381 125.394C422.988 125.394 422.533 125.433 422.016 125.509C422.189 129.378 422.275 131.906 422.275 133.093C422.275 133.218 422.28 133.452 422.289 133.797C422.299 134.132 422.303 134.405 422.303 134.616C422.303 136.818 421.609 137.919 420.221 137.919C419.694 137.919 419.239 137.756 418.856 137.431C418.435 137.086 418.224 136.655 418.224 136.138C418.224 135.793 418.239 135.276 418.267 134.587C418.296 133.898 418.31 133.38 418.31 133.036C418.31 131.877 418.224 129.397 418.052 125.596C417.458 125.567 416.558 125.49 415.352 125.366C414.155 125.232 413.556 124.609 413.556 123.499C413.556 122.962 413.738 122.507 414.102 122.134C414.466 121.761 414.935 121.574 415.51 121.574C415.864 121.574 416.678 121.631 417.951 121.746C417.942 121.44 417.918 120.932 417.88 120.224C417.841 119.611 417.822 119.137 417.822 118.802C417.822 118.265 418.018 117.82 418.411 117.466C418.804 117.112 419.278 116.934 419.833 116.934C421.25 116.934 421.959 118.127 421.959 120.511L421.93 121.689C422.524 121.603 423.007 121.559 423.381 121.559C424.482 121.559 425.234 121.631 425.636 121.775C426.402 122.043 426.785 122.627 426.785 123.527C426.785 124.073 426.598 124.528 426.225 124.892C425.851 125.256 425.377 125.438 424.803 125.438ZM435.776 137.661C433.488 137.661 431.616 137.115 430.16 136.023C428.551 134.817 427.747 133.117 427.747 130.924C427.747 128.502 428.384 126.453 429.657 124.777C431.075 122.919 432.985 121.99 435.388 121.99C437.055 121.99 438.438 122.258 439.539 122.795C440.985 123.503 441.708 124.604 441.708 126.098C441.708 127.152 441.119 128.085 439.942 128.899C439.405 129.273 438.328 129.818 436.71 130.537L431.869 132.677C432.329 133.175 432.884 133.548 433.536 133.797C434.187 134.046 434.934 134.17 435.776 134.17C437.059 134.17 438.146 133.907 439.037 133.38C439.831 132.911 440.468 132.677 440.947 132.677C441.943 132.677 442.441 133.16 442.441 134.127C442.441 135.219 441.641 136.109 440.042 136.799C438.702 137.373 437.28 137.661 435.776 137.661ZM435.388 125.466C434.498 125.466 433.737 125.763 433.105 126.357C432.473 126.95 431.965 127.841 431.582 129.028C432.664 128.559 433.741 128.095 434.814 127.635C436.107 127.051 437.136 126.51 437.902 126.012C437.26 125.648 436.423 125.466 435.388 125.466Z" fill="black"/>
<rect x="92.5" y="166.5" width="1252" height="747" rx="4.5" fill="white" stroke="black" stroke-width="3"/>
<path d="M137.287 216.374C137.287 216.608 137.248 216.999 137.169 217.546C137.091 218.039 136.83 218.286 136.386 218.286C136.117 218.286 135.797 218.11 135.426 217.758C133.439 215.878 131.159 213.166 128.585 209.621L128.549 211.284L128.527 212.954C128.527 213.359 128.534 213.967 128.549 214.777C128.568 215.588 128.578 216.198 128.578 216.608C128.578 217.922 128.324 218.579 127.816 218.579C127.548 218.579 127.335 218.493 127.179 218.322C127.038 218.171 126.967 217.99 126.967 217.78C126.967 217.575 126.981 217.265 127.011 216.85C127.045 216.435 127.062 216.125 127.062 215.92C127.062 215.617 127.072 215.166 127.091 214.565C127.111 213.959 127.121 213.505 127.121 213.203C127.121 212.88 127.113 212.395 127.099 211.745C127.084 211.091 127.077 210.603 127.077 210.28C127.077 209.973 127.047 209.516 126.989 208.911C126.93 208.3 126.901 207.841 126.901 207.534C126.901 207.309 126.996 207.104 127.187 206.918C127.382 206.733 127.602 206.64 127.846 206.64C128.104 206.64 128.424 206.923 128.805 207.49C130.021 209.311 131.115 210.825 132.086 212.031C133.244 213.461 134.513 214.829 135.895 216.132C135.91 215.922 135.91 215.612 135.895 215.202L135.873 214.279C135.873 212.136 135.79 210.429 135.624 209.16C135.604 209.033 135.539 208.776 135.426 208.391C135.329 208.059 135.28 207.8 135.28 207.614C135.28 207.048 135.539 206.765 136.056 206.765C136.906 206.765 137.331 208.349 137.331 211.518C137.331 212.06 137.323 212.871 137.309 213.95C137.294 215.024 137.287 215.832 137.287 216.374ZM141.718 218.432C140.897 218.432 140.192 218.129 139.601 217.524C138.942 216.85 138.595 215.944 138.561 214.807C138.532 213.703 138.81 212.731 139.396 211.892C140.08 210.9 141.032 210.405 142.252 210.405C143.229 210.405 143.969 210.852 144.472 211.745C144.872 212.468 145.065 213.337 145.05 214.353C145.036 215.437 144.752 216.362 144.201 217.128C143.576 217.998 142.748 218.432 141.718 218.432ZM142.157 211.892C141.439 211.887 140.88 212.229 140.48 212.917C140.163 213.469 140.004 214.099 140.004 214.807C140.004 215.515 140.197 216.066 140.583 216.462C140.905 216.789 141.283 216.953 141.718 216.953C142.226 216.953 142.663 216.767 143.029 216.396C143.444 215.986 143.664 215.432 143.688 214.733C143.756 212.844 143.246 211.896 142.157 211.892ZM156.168 218.608C155.768 218.608 155.534 218.396 155.465 217.971C155.377 217.434 155.29 216.677 155.202 215.7L154.953 213.43C154.904 213.093 154.821 212.763 154.704 212.441C154.538 212.001 154.357 211.782 154.162 211.782C153.981 211.782 153.644 211.936 153.151 212.243C152.682 212.526 152.375 212.753 152.228 212.924C152.223 213.383 152.235 213.842 152.265 214.301L152.484 216.257C152.577 217.028 152.624 217.666 152.624 218.168C152.624 218.383 152.555 218.559 152.418 218.696C152.287 218.837 152.116 218.908 151.906 218.908C151.696 218.908 151.522 218.837 151.386 218.696C151.254 218.559 151.188 218.383 151.188 218.168C151.188 217.578 151.127 216.706 151.005 215.554C150.888 214.396 150.829 213.522 150.829 212.932C150.829 212.414 150.756 212.011 150.609 211.723C150.268 211.879 149.921 212.133 149.569 212.485L148.705 213.452C148.627 213.569 148.502 213.723 148.332 213.913C148.332 214.206 148.305 214.638 148.251 215.209C148.197 215.781 148.17 216.203 148.17 216.477C148.17 216.623 148.192 216.828 148.236 217.092C148.285 217.355 148.31 217.546 148.31 217.663C148.31 217.863 148.234 218.032 148.083 218.168C147.936 218.305 147.763 218.374 147.562 218.374C147.011 218.374 146.735 217.746 146.735 216.491C146.735 216.198 146.762 215.761 146.815 215.18C146.869 214.599 146.896 214.162 146.896 213.869C146.896 213.61 146.872 213.222 146.823 212.705C146.779 212.187 146.757 211.796 146.757 211.533C146.757 210.424 147.006 209.87 147.504 209.87C147.694 209.87 147.868 209.953 148.024 210.119C148.185 210.285 148.266 210.466 148.266 210.661C148.266 210.754 148.253 210.898 148.229 211.093C148.205 211.289 148.192 211.438 148.192 211.54L148.207 212.309C148.461 211.787 148.834 211.315 149.328 210.896C149.821 210.471 150.241 210.258 150.587 210.258C151.354 210.258 151.881 210.639 152.169 211.401C152.438 211.044 152.758 210.778 153.129 210.603C153.5 210.422 153.925 210.332 154.403 210.332C155.219 210.332 155.775 210.771 156.073 211.65C156.132 211.826 156.232 212.512 156.374 213.708C156.51 214.548 156.686 215.947 156.901 217.905C156.916 218.1 156.85 218.266 156.703 218.403C156.557 218.54 156.378 218.608 156.168 218.608ZM161.947 218.337C160.844 218.337 159.95 218.061 159.267 217.509C158.52 216.899 158.146 216.044 158.146 214.946C158.146 213.676 158.454 212.612 159.069 211.752C159.738 210.815 160.631 210.346 161.75 210.346C162.56 210.346 163.222 210.483 163.734 210.756C164.364 211.093 164.679 211.611 164.679 212.309C164.679 212.797 164.403 213.242 163.852 213.642C163.607 213.818 163.09 214.091 162.299 214.462L159.501 215.788C159.774 216.193 160.114 216.499 160.519 216.704C160.929 216.909 161.405 217.011 161.947 217.011C162.284 217.011 162.68 216.948 163.134 216.821C163.71 216.66 164.081 216.45 164.247 216.191C164.413 215.927 164.591 215.795 164.782 215.795C164.953 215.795 165.104 215.861 165.236 215.993C165.373 216.12 165.441 216.269 165.441 216.44C165.441 216.982 165.004 217.448 164.13 217.839C163.383 218.171 162.655 218.337 161.947 218.337ZM161.75 211.665C161.154 211.665 160.658 211.896 160.263 212.36C159.867 212.819 159.572 213.513 159.376 214.44L161.625 213.371C162.509 212.941 163.139 212.568 163.515 212.25C163.095 211.86 162.506 211.665 161.75 211.665ZM177.973 211.533C177.914 212.25 177.885 212.968 177.885 213.686C177.885 215.312 177.96 216.54 178.112 217.37C178.122 217.438 178.126 217.495 178.126 217.539C178.126 217.734 178.058 217.895 177.921 218.022C177.785 218.149 177.626 218.212 177.445 218.212C177.143 218.212 176.92 217.993 176.779 217.553C176.427 217.812 176.061 218.007 175.68 218.139C175.304 218.271 174.911 218.337 174.501 218.337C173.49 218.337 172.653 218 171.989 217.326C171.305 216.638 170.963 215.754 170.963 214.675C170.963 213.371 171.308 212.326 171.996 211.54C172.689 210.754 173.588 210.361 174.691 210.361C175.258 210.361 175.695 210.449 176.002 210.625L176.691 211.13C176.759 209.074 176.84 207.69 176.933 206.977C176.996 206.542 177.218 206.325 177.599 206.325C178.043 206.325 178.266 206.562 178.266 207.036C178.266 207.714 178.168 209.213 177.973 211.533ZM174.721 211.723C173.9 211.723 173.285 211.967 172.875 212.456C172.465 212.939 172.26 213.669 172.26 214.646C172.26 215.275 172.482 215.817 172.926 216.271C173.375 216.726 173.9 216.953 174.501 216.953C174.911 216.953 175.258 216.877 175.541 216.726C175.707 216.638 175.978 216.435 176.354 216.118C176.427 216.054 176.498 215.979 176.566 215.891L176.544 214.624L176.552 213.774L176.566 212.91C176.381 212.514 176.134 212.219 175.827 212.023C175.519 211.823 175.15 211.723 174.721 211.723ZM182.792 218.432C181.972 218.432 181.266 218.129 180.675 217.524C180.016 216.85 179.669 215.944 179.635 214.807C179.606 213.703 179.884 212.731 180.47 211.892C181.154 210.9 182.106 210.405 183.327 210.405C184.303 210.405 185.043 210.852 185.546 211.745C185.946 212.468 186.139 213.337 186.125 214.353C186.11 215.437 185.827 216.362 185.275 217.128C184.65 217.998 183.822 218.432 182.792 218.432ZM183.231 211.892C182.514 211.887 181.955 212.229 181.554 212.917C181.237 213.469 181.078 214.099 181.078 214.807C181.078 215.515 181.271 216.066 181.657 216.462C181.979 216.789 182.357 216.953 182.792 216.953C183.3 216.953 183.737 216.767 184.103 216.396C184.518 215.986 184.738 215.432 184.762 214.733C184.831 212.844 184.32 211.896 183.231 211.892ZM194.43 213.701C194.293 213.701 193.996 213.669 193.537 213.605C193.498 214.343 193.478 215.634 193.478 217.48C193.478 217.675 193.415 217.841 193.288 217.978C193.161 218.11 193.002 218.176 192.812 218.176C192.616 218.176 192.455 218.11 192.328 217.978C192.201 217.841 192.138 217.675 192.138 217.48V215.327C192.138 214.609 192.182 213.598 192.27 212.294C192.367 210.883 192.421 209.873 192.431 209.262V208.251C192.431 207.768 192.46 207.417 192.519 207.197C192.631 206.767 192.87 206.582 193.236 206.64C193.393 206.591 193.615 206.555 193.903 206.53C194.191 206.506 194.545 206.494 194.965 206.494C195.858 206.494 196.696 206.799 197.477 207.409C198.336 208.083 198.766 208.894 198.766 209.841C198.766 211.052 198.307 212.016 197.389 212.734C196.569 213.378 195.583 213.701 194.43 213.701ZM194.796 207.885C194.582 207.885 194.389 207.89 194.218 207.9C194.052 207.91 193.91 207.924 193.793 207.944L193.778 209.292L193.625 212.207L194.43 212.302C195.25 212.302 195.941 212.094 196.503 211.679C197.118 211.225 197.426 210.612 197.426 209.841C197.426 209.294 197.133 208.823 196.547 208.427C196.005 208.066 195.421 207.885 194.796 207.885ZM205.951 218.483C205.858 218.483 205.69 218.376 205.446 218.161C205.226 217.961 205.062 217.783 204.955 217.626C204.486 217.88 204.074 218.071 203.717 218.198C203.361 218.33 203.063 218.396 202.824 218.396C201.681 218.396 200.849 218.073 200.326 217.429C199.833 216.823 199.586 215.896 199.586 214.646C199.586 213.464 199.992 212.453 200.802 211.613C201.618 210.773 202.589 210.354 203.717 210.354C204.142 210.354 204.618 210.463 205.146 210.683C205.81 210.957 206.142 211.286 206.142 211.672C206.142 211.804 206.093 211.921 205.995 212.023C205.946 212.209 205.907 212.514 205.878 212.939C205.854 213.364 205.839 213.908 205.834 214.572C205.829 215.178 205.871 215.656 205.958 216.008C206.007 216.223 206.161 216.652 206.42 217.297C206.454 217.385 206.51 217.514 206.588 217.685L206.632 217.81C206.632 218.005 206.564 218.166 206.427 218.293C206.291 218.42 206.132 218.483 205.951 218.483ZM204.428 213.393C204.428 213.183 204.44 212.956 204.464 212.712C204.494 212.463 204.535 212.199 204.589 211.921C204.408 211.828 204.252 211.76 204.12 211.716C203.993 211.672 203.891 211.65 203.812 211.65C203.056 211.65 202.401 211.96 201.85 212.58C201.303 213.195 201.029 213.906 201.029 214.711C201.029 215.512 201.171 216.113 201.454 216.513C201.737 216.914 202.162 217.114 202.729 217.114C203.197 217.114 203.595 217.028 203.922 216.857C204.098 216.765 204.345 216.579 204.662 216.301C204.506 215.007 204.428 214.038 204.428 213.393ZM211.217 218.461C210.216 218.461 209.381 218.159 208.712 217.553C208.009 216.918 207.658 216.081 207.658 215.041C207.658 214.05 207.987 213.027 208.646 211.972C209.379 210.8 210.204 210.214 211.122 210.214C211.601 210.214 212.135 210.327 212.726 210.551C213.473 210.839 213.847 211.191 213.847 211.606C213.847 211.792 213.786 211.958 213.664 212.104C213.542 212.246 213.39 212.316 213.209 212.316C213.068 212.316 212.943 212.275 212.836 212.192C212.733 212.104 212.633 212.019 212.536 211.936C212.248 211.706 211.776 211.591 211.122 211.591C210.624 211.591 210.131 212.036 209.643 212.924C209.198 213.74 208.976 214.445 208.976 215.041C208.976 215.686 209.196 216.193 209.635 216.564C210.045 216.911 210.573 217.084 211.217 217.084C211.51 217.084 211.823 217.006 212.155 216.85L213.004 216.396C213.151 216.318 213.256 216.279 213.319 216.279C213.5 216.279 213.656 216.352 213.788 216.499C213.92 216.64 213.986 216.804 213.986 216.989C213.986 217.346 213.61 217.69 212.858 218.022C212.199 218.315 211.652 218.461 211.217 218.461ZM217.011 208.728C216.776 208.728 216.574 208.645 216.403 208.479C216.232 208.312 216.146 208.112 216.146 207.878C216.146 207.644 216.232 207.443 216.403 207.277C216.574 207.111 216.776 207.028 217.011 207.028C217.245 207.028 217.445 207.111 217.611 207.277C217.782 207.443 217.868 207.644 217.868 207.878C217.868 208.112 217.782 208.312 217.611 208.479C217.445 208.645 217.245 208.728 217.011 208.728ZM217.34 214.675C217.34 214.968 217.348 215.407 217.362 215.993C217.382 216.574 217.392 217.011 217.392 217.304C217.392 217.519 217.326 217.695 217.194 217.832C217.062 217.968 216.889 218.037 216.674 218.037C216.464 218.037 216.291 217.968 216.154 217.832C216.022 217.695 215.956 217.519 215.956 217.304C215.956 217.011 215.946 216.574 215.927 215.993C215.912 215.407 215.905 214.968 215.905 214.675C215.905 214.216 215.929 213.645 215.978 212.961C216.027 212.272 216.051 211.699 216.051 211.24C216.051 211.02 216.117 210.842 216.249 210.705C216.386 210.568 216.559 210.5 216.769 210.5C216.979 210.5 217.15 210.568 217.282 210.705C217.418 210.842 217.487 211.02 217.487 211.24C217.487 211.699 217.462 212.272 217.414 212.961C217.365 213.645 217.34 214.216 217.34 214.675ZM223.236 218.337C222.133 218.337 221.239 218.061 220.556 217.509C219.809 216.899 219.435 216.044 219.435 214.946C219.435 213.676 219.743 212.612 220.358 211.752C221.027 210.815 221.92 210.346 223.039 210.346C223.849 210.346 224.511 210.483 225.023 210.756C225.653 211.093 225.968 211.611 225.968 212.309C225.968 212.797 225.692 213.242 225.141 213.642C224.896 213.818 224.379 214.091 223.588 214.462L220.79 215.788C221.063 216.193 221.403 216.499 221.808 216.704C222.218 216.909 222.694 217.011 223.236 217.011C223.573 217.011 223.969 216.948 224.423 216.821C224.999 216.66 225.37 216.45 225.536 216.191C225.702 215.927 225.88 215.795 226.071 215.795C226.242 215.795 226.393 215.861 226.525 215.993C226.662 216.12 226.73 216.269 226.73 216.44C226.73 216.982 226.293 217.448 225.419 217.839C224.672 218.171 223.944 218.337 223.236 218.337ZM223.039 211.665C222.443 211.665 221.947 211.896 221.552 212.36C221.156 212.819 220.861 213.513 220.666 214.44L222.914 213.371C223.798 212.941 224.428 212.568 224.804 212.25C224.384 211.86 223.795 211.665 223.039 211.665ZM233.651 218.52C233.231 218.52 232.995 218.291 232.941 217.832L232.736 216.228C232.667 215.656 232.633 215.122 232.633 214.624C232.633 214.487 232.641 214.255 232.655 213.928C232.675 213.601 232.685 213.369 232.685 213.232C232.685 212.177 232.489 211.65 232.099 211.65C231.552 211.65 231.029 211.975 230.531 212.624C230.082 213.215 229.73 213.962 229.477 214.865C229.467 215.056 229.445 215.295 229.411 215.583C229.381 215.827 229.367 216.064 229.367 216.293C229.367 216.44 229.381 216.66 229.411 216.953C229.44 217.246 229.455 217.465 229.455 217.612C229.455 217.832 229.386 218.01 229.25 218.146C229.118 218.283 228.947 218.352 228.737 218.352C228.522 218.352 228.349 218.283 228.217 218.146C228.085 218.01 228.019 217.832 228.019 217.612C228.019 217.465 228.002 217.246 227.968 216.953C227.938 216.66 227.924 216.44 227.924 216.293C227.924 215.791 227.958 215.095 228.026 214.206C228.1 213.312 228.136 212.614 228.136 212.111C228.136 211.955 228.126 211.723 228.107 211.416C228.092 211.108 228.085 210.876 228.085 210.72C228.085 210.51 228.153 210.339 228.29 210.207C228.432 210.07 228.605 210.002 228.81 210.002C229.259 210.002 229.506 210.319 229.55 210.954L229.572 211.811C230.392 210.717 231.234 210.17 232.099 210.17C232.88 210.17 233.424 210.515 233.732 211.203C233.942 211.662 234.057 212.341 234.076 213.239V213.979L234.069 214.66C234.069 215.065 234.12 215.59 234.223 216.235C234.33 216.875 234.384 217.395 234.384 217.795C234.384 218.01 234.313 218.183 234.171 218.315C234.035 218.452 233.861 218.52 233.651 218.52ZM240.785 211.76C240.683 211.76 240.561 211.755 240.419 211.745C240.282 211.735 240.163 211.73 240.06 211.73C239.948 211.73 239.616 211.767 239.064 211.84L239.203 216.169L239.21 216.491L239.218 216.865C239.237 217.934 238.981 218.469 238.449 218.469C238.253 218.469 238.083 218.405 237.936 218.278C237.794 218.151 237.724 217.993 237.724 217.802C237.724 217.617 237.731 217.338 237.746 216.967C237.76 216.596 237.768 216.318 237.768 216.132L237.621 211.855C237.265 211.84 236.723 211.799 235.995 211.73C235.561 211.672 235.343 211.43 235.343 211.005C235.343 210.791 235.409 210.612 235.541 210.471C235.673 210.329 235.841 210.258 236.046 210.258L237.584 210.383C237.584 210.134 237.572 209.802 237.548 209.387C237.528 208.967 237.519 208.664 237.519 208.479C237.519 208.273 237.589 208.105 237.731 207.973C237.873 207.836 238.046 207.768 238.251 207.768C238.69 207.768 238.947 208.127 239.02 208.845C239.035 209.025 239.042 209.243 239.042 209.497L239.027 209.921L239.02 210.375C239.625 210.297 239.972 210.258 240.06 210.258C240.568 210.258 240.9 210.283 241.056 210.332C241.354 210.429 241.503 210.659 241.503 211.02C241.503 211.235 241.435 211.413 241.298 211.555C241.166 211.691 240.995 211.76 240.785 211.76ZM246.381 218.337C245.277 218.337 244.384 218.061 243.7 217.509C242.953 216.899 242.58 216.044 242.58 214.946C242.58 213.676 242.887 212.612 243.502 211.752C244.171 210.815 245.065 210.346 246.183 210.346C246.994 210.346 247.655 210.483 248.168 210.756C248.798 211.093 249.113 211.611 249.113 212.309C249.113 212.797 248.837 213.242 248.285 213.642C248.041 213.818 247.523 214.091 246.732 214.462L243.935 215.788C244.208 216.193 244.547 216.499 244.953 216.704C245.363 216.909 245.839 217.011 246.381 217.011C246.718 217.011 247.113 216.948 247.567 216.821C248.144 216.66 248.515 216.45 248.681 216.191C248.847 215.927 249.025 215.795 249.215 215.795C249.386 215.795 249.538 215.861 249.669 215.993C249.806 216.12 249.875 216.269 249.875 216.44C249.875 216.982 249.438 217.448 248.563 217.839C247.816 218.171 247.089 218.337 246.381 218.337ZM246.183 211.665C245.587 211.665 245.092 211.896 244.696 212.36C244.301 212.819 244.005 213.513 243.81 214.44L246.059 213.371C246.942 212.941 247.572 212.568 247.948 212.25C247.528 211.86 246.94 211.665 246.183 211.665Z" fill="black"/>
<path d="M422.247 218.081C422.062 218.081 421.888 218.002 421.727 217.846C420.111 216.25 418.314 215.175 416.336 214.624L416.395 216.059L416.432 217.502C416.432 217.717 416.361 217.895 416.219 218.037C416.083 218.183 415.909 218.256 415.699 218.256C415.489 218.256 415.313 218.183 415.172 218.037C415.035 217.895 414.967 217.717 414.967 217.502C414.967 217.116 414.947 216.542 414.908 215.781C414.874 215.014 414.857 214.438 414.857 214.052C414.857 213.603 414.906 212.934 415.003 212.045C415.101 211.157 415.15 210.49 415.15 210.046C415.15 209.797 415.125 209.428 415.077 208.94C415.033 208.452 415.011 208.083 415.011 207.834C415.011 207.556 415.089 207.312 415.245 207.102C415.431 206.843 415.687 206.726 416.014 206.75L417.779 206.889C418.448 206.972 419.012 207.136 419.471 207.38C421.449 208.43 422.438 209.711 422.438 211.225C422.438 211.967 422.101 212.624 421.427 213.195C420.885 213.654 420.208 214.003 419.398 214.243C420.917 215.058 422.052 215.917 422.804 216.821C422.931 216.977 422.994 217.143 422.994 217.319C422.994 217.524 422.918 217.702 422.767 217.854C422.621 218.005 422.447 218.081 422.247 218.081ZM417.582 208.398L416.498 208.31L416.571 209.196C416.605 209.558 416.622 209.853 416.622 210.083C416.622 210.473 416.59 210.959 416.527 211.54L416.373 212.998C416.441 212.998 416.546 213 416.688 213.005C416.834 213.01 416.944 213.012 417.018 213.012C418.263 213.012 419.195 212.846 419.815 212.514C420.089 212.363 420.343 212.165 420.577 211.921C420.836 211.647 420.965 211.416 420.965 211.225C420.965 210.546 420.58 209.914 419.808 209.328C419.1 208.791 418.358 208.481 417.582 208.398ZM432.955 213.569C432.652 215.068 432.015 216.267 431.043 217.165C430.077 218.059 428.934 218.505 427.616 218.505C426.415 218.505 425.514 218.171 424.913 217.502C424.312 216.828 424.012 215.82 424.012 214.477C424.012 213.212 424.31 211.911 424.906 210.573C425.506 209.23 426.275 208.146 427.213 207.321C427.838 206.77 428.5 206.494 429.198 206.494C429.642 206.494 430.228 206.64 430.956 206.933C431.844 207.285 432.289 207.673 432.289 208.098C432.289 208.298 432.215 208.476 432.069 208.632C431.922 208.789 431.747 208.867 431.542 208.867C431.434 208.867 431.283 208.806 431.087 208.684C430.34 208.229 429.71 208.002 429.198 208.002C428.832 208.002 428.448 208.193 428.048 208.574C427.848 208.764 427.56 209.111 427.184 209.614C426.056 211.108 425.492 212.729 425.492 214.477C425.492 215.395 425.633 216.037 425.917 216.403C426.224 216.804 426.791 217.004 427.616 217.004C428.49 217.004 429.249 216.728 429.894 216.176C430.572 215.59 431.046 214.753 431.314 213.664C429.962 213.732 428.802 213.994 427.835 214.448C427.723 214.501 427.613 214.528 427.506 214.528C427.291 214.528 427.113 214.445 426.971 214.279C426.839 214.128 426.773 213.952 426.773 213.752C426.773 213.483 426.903 213.269 427.162 213.107C428.216 212.463 430.035 212.141 432.618 212.141C432.828 212.141 433.004 212.211 433.146 212.353C433.287 212.495 433.358 212.673 433.358 212.888C433.358 213.205 433.224 213.432 432.955 213.569Z" fill="black"/>
<path d="M118 229.5L1266 229.5" stroke="#C3C3C3"/>
<path d="M558.009 208.874C557.697 208.874 557.304 208.842 556.83 208.779L555.651 208.625C555.539 210.046 555.482 211.403 555.482 212.697C555.482 213.039 555.492 213.461 555.512 213.964C555.531 214.467 555.541 214.89 555.541 215.231C555.541 215.69 555.524 216.108 555.49 216.484L557.797 216.455C558.002 216.455 558.173 216.528 558.31 216.674C558.451 216.816 558.522 216.992 558.522 217.202C558.522 217.417 558.451 217.597 558.31 217.744C558.173 217.885 558.002 217.956 557.797 217.956C557.523 217.956 557.113 217.963 556.566 217.978C556.02 217.988 555.609 217.993 555.336 217.993C555.014 217.993 554.53 218.037 553.886 218.125C553.246 218.217 552.763 218.264 552.436 218.264C552.23 218.264 552.057 218.19 551.916 218.044C551.779 217.902 551.71 217.727 551.71 217.517C551.71 217.307 551.779 217.128 551.916 216.982C552.057 216.835 552.23 216.762 552.436 216.762C552.753 216.762 553.278 216.711 554.01 216.608C554.059 216.213 554.083 215.761 554.083 215.253C554.083 214.917 554.066 214.506 554.032 214.023C554.003 213.535 553.988 213.125 553.988 212.792C553.988 211.665 554.057 210.256 554.193 208.566L553.241 208.596L552.289 208.618C552.079 208.618 551.903 208.547 551.762 208.405C551.62 208.264 551.549 208.083 551.549 207.863C551.549 207.409 551.779 207.16 552.238 207.116C552.633 207.077 553.373 207.058 554.457 207.058C555.429 207.058 556.647 207.163 558.112 207.373C558.546 207.436 558.764 207.697 558.764 208.156C558.764 208.386 558.681 208.569 558.515 208.706C558.368 208.818 558.2 208.874 558.009 208.874ZM566.967 211.533C566.908 212.25 566.879 212.968 566.879 213.686C566.879 215.312 566.955 216.54 567.106 217.37C567.116 217.438 567.121 217.495 567.121 217.539C567.121 217.734 567.052 217.895 566.916 218.022C566.779 218.149 566.62 218.212 566.439 218.212C566.137 218.212 565.915 217.993 565.773 217.553C565.421 217.812 565.055 218.007 564.674 218.139C564.298 218.271 563.905 218.337 563.495 218.337C562.484 218.337 561.647 218 560.983 217.326C560.299 216.638 559.958 215.754 559.958 214.675C559.958 213.371 560.302 212.326 560.99 211.54C561.684 210.754 562.582 210.361 563.686 210.361C564.252 210.361 564.689 210.449 564.997 210.625L565.685 211.13C565.753 209.074 565.834 207.69 565.927 206.977C565.99 206.542 566.212 206.325 566.593 206.325C567.038 206.325 567.26 206.562 567.26 207.036C567.26 207.714 567.162 209.213 566.967 211.533ZM563.715 211.723C562.895 211.723 562.279 211.967 561.869 212.456C561.459 212.939 561.254 213.669 561.254 214.646C561.254 215.275 561.476 215.817 561.92 216.271C562.37 216.726 562.895 216.953 563.495 216.953C563.905 216.953 564.252 216.877 564.535 216.726C564.701 216.638 564.972 216.435 565.348 216.118C565.421 216.054 565.492 215.979 565.561 215.891L565.539 214.624L565.546 213.774L565.561 212.91C565.375 212.514 565.128 212.219 564.821 212.023C564.513 211.823 564.145 211.723 563.715 211.723ZM574.76 218.483C574.667 218.483 574.499 218.376 574.254 218.161C574.035 217.961 573.871 217.783 573.764 217.626C573.295 217.88 572.882 218.071 572.526 218.198C572.169 218.33 571.872 218.396 571.632 218.396C570.49 218.396 569.657 218.073 569.135 217.429C568.642 216.823 568.395 215.896 568.395 214.646C568.395 213.464 568.8 212.453 569.611 211.613C570.426 210.773 571.398 210.354 572.526 210.354C572.951 210.354 573.427 210.463 573.954 210.683C574.618 210.957 574.95 211.286 574.95 211.672C574.95 211.804 574.901 211.921 574.804 212.023C574.755 212.209 574.716 212.514 574.687 212.939C574.662 213.364 574.647 213.908 574.643 214.572C574.638 215.178 574.679 215.656 574.767 216.008C574.816 216.223 574.97 216.652 575.229 217.297C575.263 217.385 575.319 217.514 575.397 217.685L575.441 217.81C575.441 218.005 575.373 218.166 575.236 218.293C575.099 218.42 574.94 218.483 574.76 218.483ZM573.236 213.393C573.236 213.183 573.249 212.956 573.273 212.712C573.302 212.463 573.344 212.199 573.397 211.921C573.217 211.828 573.061 211.76 572.929 211.716C572.802 211.672 572.699 211.65 572.621 211.65C571.864 211.65 571.21 211.96 570.658 212.58C570.111 213.195 569.838 213.906 569.838 214.711C569.838 215.512 569.979 216.113 570.263 216.513C570.546 216.914 570.971 217.114 571.537 217.114C572.006 217.114 572.404 217.028 572.731 216.857C572.907 216.765 573.153 216.579 573.471 216.301C573.314 215.007 573.236 214.038 573.236 213.393ZM583.461 211.533C583.402 212.25 583.373 212.968 583.373 213.686C583.373 215.312 583.449 216.54 583.6 217.37C583.61 217.438 583.615 217.495 583.615 217.539C583.615 217.734 583.546 217.895 583.41 218.022C583.273 218.149 583.114 218.212 582.934 218.212C582.631 218.212 582.409 217.993 582.267 217.553C581.916 217.812 581.549 218.007 581.168 218.139C580.792 218.271 580.399 218.337 579.989 218.337C578.979 218.337 578.141 218 577.477 217.326C576.793 216.638 576.452 215.754 576.452 214.675C576.452 213.371 576.796 212.326 577.484 211.54C578.178 210.754 579.076 210.361 580.18 210.361C580.746 210.361 581.183 210.449 581.491 210.625L582.179 211.13C582.248 209.074 582.328 207.69 582.421 206.977C582.484 206.542 582.707 206.325 583.087 206.325C583.532 206.325 583.754 206.562 583.754 207.036C583.754 207.714 583.656 209.213 583.461 211.533ZM580.209 211.723C579.389 211.723 578.773 211.967 578.363 212.456C577.953 212.939 577.748 213.669 577.748 214.646C577.748 215.275 577.97 215.817 578.415 216.271C578.864 216.726 579.389 216.953 579.989 216.953C580.399 216.953 580.746 216.877 581.029 216.726C581.195 216.638 581.466 216.435 581.842 216.118C581.916 216.054 581.986 215.979 582.055 215.891L582.033 214.624L582.04 213.774L582.055 212.91C581.869 212.514 581.623 212.219 581.315 212.023C581.007 211.823 580.639 211.723 580.209 211.723ZM588.954 218.337C587.851 218.337 586.957 218.061 586.273 217.509C585.526 216.899 585.153 216.044 585.153 214.946C585.153 213.676 585.46 212.612 586.076 211.752C586.745 210.815 587.638 210.346 588.756 210.346C589.567 210.346 590.229 210.483 590.741 210.756C591.371 211.093 591.686 211.611 591.686 212.309C591.686 212.797 591.41 213.242 590.858 213.642C590.614 213.818 590.097 214.091 589.306 214.462L586.508 215.788C586.781 216.193 587.121 216.499 587.526 216.704C587.936 216.909 588.412 217.011 588.954 217.011C589.291 217.011 589.687 216.948 590.141 216.821C590.717 216.66 591.088 216.45 591.254 216.191C591.42 215.927 591.598 215.795 591.789 215.795C591.959 215.795 592.111 215.861 592.243 215.993C592.379 216.12 592.448 216.269 592.448 216.44C592.448 216.982 592.011 217.448 591.137 217.839C590.39 218.171 589.662 218.337 588.954 218.337ZM588.756 211.665C588.161 211.665 587.665 211.896 587.27 212.36C586.874 212.819 586.579 213.513 586.383 214.44L588.632 213.371C589.516 212.941 590.146 212.568 590.521 212.25C590.102 211.86 589.513 211.665 588.756 211.665Z" fill="black"/>
<path d="M693.025 213.701C692.888 213.701 692.59 213.669 692.131 213.605C692.092 214.343 692.073 215.634 692.073 217.48C692.073 217.675 692.009 217.841 691.882 217.978C691.755 218.11 691.597 218.176 691.406 218.176C691.211 218.176 691.05 218.11 690.923 217.978C690.796 217.841 690.732 217.675 690.732 217.48V215.327C690.732 214.609 690.776 213.598 690.864 212.294C690.962 210.883 691.016 209.873 691.025 209.262V208.251C691.025 207.768 691.055 207.417 691.113 207.197C691.226 206.767 691.465 206.582 691.831 206.64C691.987 206.591 692.209 206.555 692.498 206.53C692.786 206.506 693.14 206.494 693.56 206.494C694.453 206.494 695.291 206.799 696.072 207.409C696.931 208.083 697.361 208.894 697.361 209.841C697.361 211.052 696.902 212.016 695.984 212.734C695.164 213.378 694.177 213.701 693.025 213.701ZM693.391 207.885C693.176 207.885 692.983 207.89 692.812 207.9C692.646 207.91 692.505 207.924 692.388 207.944L692.373 209.292L692.219 212.207L693.025 212.302C693.845 212.302 694.536 212.094 695.098 211.679C695.713 211.225 696.021 210.612 696.021 209.841C696.021 209.294 695.728 208.823 695.142 208.427C694.6 208.066 694.016 207.885 693.391 207.885ZM704.524 212.587C704.49 213.198 704.246 213.503 703.792 213.503C703.372 213.503 703.162 213.261 703.162 212.778C703.162 212.685 703.154 212.514 703.14 212.265L703.118 211.65C702.346 211.743 701.729 211.96 701.265 212.302C700.83 212.619 700.469 213.098 700.181 213.737L700.195 217.751C700.195 218.244 699.954 218.491 699.47 218.491C699.041 218.491 698.826 218.244 698.826 217.751V212.609C698.826 212.448 698.831 212.207 698.84 211.884C698.855 211.562 698.862 211.32 698.862 211.159C698.862 210.666 699.077 210.419 699.507 210.419C699.985 210.419 700.227 210.825 700.232 211.635C701.169 210.732 702.209 210.28 703.352 210.28C703.748 210.28 704.043 210.429 704.238 210.727C704.434 211.025 704.531 211.474 704.531 212.075C704.531 212.329 704.529 212.5 704.524 212.587ZM708.779 218.432C707.959 218.432 707.253 218.129 706.663 217.524C706.003 216.85 705.657 215.944 705.623 214.807C705.593 213.703 705.872 212.731 706.458 211.892C707.141 210.9 708.093 210.405 709.314 210.405C710.291 210.405 711.03 210.852 711.533 211.745C711.934 212.468 712.126 213.337 712.112 214.353C712.097 215.437 711.814 216.362 711.262 217.128C710.637 217.998 709.81 218.432 708.779 218.432ZM709.219 211.892C708.501 211.887 707.942 212.229 707.542 212.917C707.224 213.469 707.065 214.099 707.065 214.807C707.065 215.515 707.258 216.066 707.644 216.462C707.966 216.789 708.345 216.953 708.779 216.953C709.287 216.953 709.724 216.767 710.09 216.396C710.505 215.986 710.725 215.432 710.75 214.733C710.818 212.844 710.308 211.896 709.219 211.892ZM719.546 218.52C719.126 218.52 718.889 218.291 718.835 217.832L718.63 216.228C718.562 215.656 718.528 215.122 718.528 214.624C718.528 214.487 718.535 214.255 718.55 213.928C718.569 213.601 718.579 213.369 718.579 213.232C718.579 212.177 718.384 211.65 717.993 211.65C717.446 211.65 716.924 211.975 716.426 212.624C715.977 213.215 715.625 213.962 715.371 214.865C715.361 215.056 715.339 215.295 715.305 215.583C715.276 215.827 715.261 216.064 715.261 216.293C715.261 216.44 715.276 216.66 715.305 216.953C715.334 217.246 715.349 217.465 715.349 217.612C715.349 217.832 715.281 218.01 715.144 218.146C715.012 218.283 714.841 218.352 714.631 218.352C714.417 218.352 714.243 218.283 714.111 218.146C713.979 218.01 713.914 217.832 713.914 217.612C713.914 217.465 713.896 217.246 713.862 216.953C713.833 216.66 713.818 216.44 713.818 216.293C713.818 215.791 713.853 215.095 713.921 214.206C713.994 213.312 714.031 212.614 714.031 212.111C714.031 211.955 714.021 211.723 714.001 211.416C713.987 211.108 713.979 210.876 713.979 210.72C713.979 210.51 714.048 210.339 714.185 210.207C714.326 210.07 714.5 210.002 714.705 210.002C715.154 210.002 715.4 210.319 715.444 210.954L715.466 211.811C716.287 210.717 717.129 210.17 717.993 210.17C718.774 210.17 719.319 210.515 719.626 211.203C719.836 211.662 719.951 212.341 719.971 213.239V213.979L719.963 214.66C719.963 215.065 720.015 215.59 720.117 216.235C720.225 216.875 720.278 217.395 720.278 217.795C720.278 218.01 720.208 218.183 720.066 218.315C719.929 218.452 719.756 218.52 719.546 218.52ZM726.68 211.76C726.577 211.76 726.455 211.755 726.313 211.745C726.177 211.735 726.057 211.73 725.955 211.73C725.842 211.73 725.51 211.767 724.958 211.84L725.098 216.169L725.105 216.491L725.112 216.865C725.132 217.934 724.875 218.469 724.343 218.469C724.148 218.469 723.977 218.405 723.831 218.278C723.689 218.151 723.618 217.993 723.618 217.802C723.618 217.617 723.625 217.338 723.64 216.967C723.655 216.596 723.662 216.318 723.662 216.132L723.516 211.855C723.159 211.84 722.617 211.799 721.89 211.73C721.455 211.672 721.238 211.43 721.238 211.005C721.238 210.791 721.304 210.612 721.436 210.471C721.567 210.329 721.736 210.258 721.941 210.258L723.479 210.383C723.479 210.134 723.467 209.802 723.442 209.387C723.423 208.967 723.413 208.664 723.413 208.479C723.413 208.273 723.484 208.105 723.625 207.973C723.767 207.836 723.94 207.768 724.146 207.768C724.585 207.768 724.841 208.127 724.915 208.845C724.929 209.025 724.937 209.243 724.937 209.497L724.922 209.921L724.915 210.375C725.52 210.297 725.867 210.258 725.955 210.258C726.462 210.258 726.794 210.283 726.951 210.332C727.249 210.429 727.397 210.659 727.397 211.02C727.397 211.235 727.329 211.413 727.192 211.555C727.061 211.691 726.89 211.76 726.68 211.76ZM734.832 213.723C734.832 214.074 734.834 214.602 734.839 215.305C734.844 216.008 734.846 216.535 734.846 216.887C734.846 216.994 734.854 217.158 734.868 217.377C734.888 217.597 734.897 217.761 734.897 217.868C734.897 218.078 734.827 218.249 734.685 218.381C734.543 218.518 734.37 218.586 734.165 218.586C733.789 218.586 733.55 218.354 733.447 217.89C732.837 218.208 732.134 218.366 731.338 218.366C730.698 218.366 730.168 218.225 729.749 217.941C729.285 217.629 729.009 217.172 728.921 216.572C728.73 215.278 728.635 214.125 728.635 213.115C728.635 212.446 728.708 211.684 728.855 210.83C728.923 210.405 729.155 210.192 729.551 210.192C729.761 210.192 729.937 210.261 730.078 210.397C730.22 210.529 730.291 210.7 730.291 210.91C730.291 211.135 730.254 211.494 730.181 211.987C730.112 212.48 730.078 212.856 730.078 213.115C730.078 213.93 730.105 214.628 730.159 215.209C730.212 215.791 730.293 216.257 730.4 216.608C730.562 216.696 730.72 216.765 730.876 216.813C731.033 216.857 731.187 216.879 731.338 216.879C731.992 216.879 732.683 216.774 733.411 216.564L733.403 215.078L733.389 213.657C733.389 212.602 733.435 211.687 733.528 210.91C733.582 210.461 733.818 210.236 734.238 210.236C734.448 210.236 734.624 210.305 734.766 210.441C734.907 210.578 734.973 210.749 734.963 210.954L734.832 213.723ZM742.493 218.483C742.4 218.483 742.231 218.376 741.987 218.161C741.768 217.961 741.604 217.783 741.497 217.626C741.028 217.88 740.615 218.071 740.259 218.198C739.902 218.33 739.604 218.396 739.365 218.396C738.223 218.396 737.39 218.073 736.868 217.429C736.375 216.823 736.128 215.896 736.128 214.646C736.128 213.464 736.533 212.453 737.344 211.613C738.159 210.773 739.131 210.354 740.259 210.354C740.684 210.354 741.16 210.463 741.687 210.683C742.351 210.957 742.683 211.286 742.683 211.672C742.683 211.804 742.634 211.921 742.537 212.023C742.488 212.209 742.449 212.514 742.419 212.939C742.395 213.364 742.38 213.908 742.375 214.572C742.371 215.178 742.412 215.656 742.5 216.008C742.549 216.223 742.703 216.652 742.961 217.297C742.996 217.385 743.052 217.514 743.13 217.685L743.174 217.81C743.174 218.005 743.105 218.166 742.969 218.293C742.832 218.42 742.673 218.483 742.493 218.483ZM740.969 213.393C740.969 213.183 740.981 212.956 741.006 212.712C741.035 212.463 741.077 212.199 741.13 211.921C740.95 211.828 740.793 211.76 740.662 211.716C740.535 211.672 740.432 211.65 740.354 211.65C739.597 211.65 738.943 211.96 738.391 212.58C737.844 213.195 737.571 213.906 737.571 214.711C737.571 215.512 737.712 216.113 737.996 216.513C738.279 216.914 738.704 217.114 739.27 217.114C739.739 217.114 740.137 217.028 740.464 216.857C740.64 216.765 740.886 216.579 741.204 216.301C741.047 215.007 740.969 214.038 740.969 213.393ZM739.915 209.306C739.739 209.306 739.583 209.238 739.446 209.101C739.314 208.964 739.248 208.808 739.248 208.632C739.248 208.466 739.324 208.308 739.475 208.156C739.685 207.951 740.005 207.563 740.435 206.992C740.757 206.572 741.116 206.223 741.511 205.944C741.643 205.852 741.772 205.805 741.899 205.805C742.075 205.805 742.229 205.876 742.361 206.018C742.493 206.154 742.559 206.311 742.559 206.486C742.559 206.682 742.466 206.853 742.28 206.999C741.938 207.272 741.609 207.626 741.292 208.061C740.959 208.52 740.645 208.874 740.347 209.123C740.21 209.245 740.066 209.306 739.915 209.306ZM750.037 212.587C750.002 213.198 749.758 213.503 749.304 213.503C748.884 213.503 748.674 213.261 748.674 212.778C748.674 212.685 748.667 212.514 748.652 212.265L748.63 211.65C747.859 211.743 747.241 211.96 746.777 212.302C746.343 212.619 745.981 213.098 745.693 213.737L745.708 217.751C745.708 218.244 745.466 218.491 744.983 218.491C744.553 218.491 744.338 218.244 744.338 217.751V212.609C744.338 212.448 744.343 212.207 744.353 211.884C744.368 211.562 744.375 211.32 744.375 211.159C744.375 210.666 744.59 210.419 745.02 210.419C745.498 210.419 745.74 210.825 745.745 211.635C746.682 210.732 747.722 210.28 748.865 210.28C749.26 210.28 749.556 210.429 749.751 210.727C749.946 211.025 750.044 211.474 750.044 212.075C750.044 212.329 750.042 212.5 750.037 212.587ZM752.944 208.728C752.71 208.728 752.507 208.645 752.336 208.479C752.166 208.312 752.08 208.112 752.08 207.878C752.08 207.644 752.166 207.443 752.336 207.277C752.507 207.111 752.71 207.028 752.944 207.028C753.179 207.028 753.379 207.111 753.545 207.277C753.716 207.443 753.801 207.644 753.801 207.878C753.801 208.112 753.716 208.312 753.545 208.479C753.379 208.645 753.179 208.728 752.944 208.728ZM753.274 214.675C753.274 214.968 753.281 215.407 753.296 215.993C753.315 216.574 753.325 217.011 753.325 217.304C753.325 217.519 753.259 217.695 753.127 217.832C752.996 217.968 752.822 218.037 752.607 218.037C752.397 218.037 752.224 217.968 752.087 217.832C751.956 217.695 751.89 217.519 751.89 217.304C751.89 217.011 751.88 216.574 751.86 215.993C751.846 215.407 751.838 214.968 751.838 214.675C751.838 214.216 751.863 213.645 751.912 212.961C751.96 212.272 751.985 211.699 751.985 211.24C751.985 211.02 752.051 210.842 752.183 210.705C752.319 210.568 752.493 210.5 752.703 210.5C752.913 210.5 753.083 210.568 753.215 210.705C753.352 210.842 753.42 211.02 753.42 211.24C753.42 211.699 753.396 212.272 753.347 212.961C753.298 213.645 753.274 214.216 753.274 214.675ZM758.496 218.432C757.676 218.432 756.97 218.129 756.379 217.524C755.72 216.85 755.374 215.944 755.339 214.807C755.31 213.703 755.588 212.731 756.174 211.892C756.858 210.9 757.81 210.405 759.031 210.405C760.007 210.405 760.747 210.852 761.25 211.745C761.65 212.468 761.843 213.337 761.829 214.353C761.814 215.437 761.531 216.362 760.979 217.128C760.354 217.998 759.526 218.432 758.496 218.432ZM758.936 211.892C758.218 211.887 757.659 212.229 757.258 212.917C756.941 213.469 756.782 214.099 756.782 214.807C756.782 215.515 756.975 216.066 757.361 216.462C757.683 216.789 758.062 216.953 758.496 216.953C759.004 216.953 759.441 216.767 759.807 216.396C760.222 215.986 760.442 215.432 760.466 214.733C760.535 212.844 760.024 211.896 758.936 211.892Z" fill="black"/>
<path d="M1001.98 216.176C1001.98 215.971 1002.04 215.805 1002.19 215.678C1002.33 215.546 1002.51 215.48 1002.72 215.48C1002.96 215.48 1003.17 215.617 1003.35 215.891C1003.6 216.262 1003.82 216.513 1004.02 216.645C1004.43 216.918 1005.04 217.055 1005.83 217.055C1006.58 217.055 1007.29 216.892 1007.94 216.564C1008.77 216.145 1009.18 215.561 1009.18 214.814C1009.18 214.199 1008.83 213.713 1008.13 213.356C1007.54 213.049 1006.81 212.883 1005.94 212.858C1005.17 212.829 1004.52 212.661 1003.97 212.353C1003.28 211.958 1002.93 211.391 1002.93 210.654C1002.93 209.785 1003.43 208.991 1004.41 208.273C1005.36 207.595 1006.33 207.255 1007.34 207.255C1007.81 207.255 1008.34 207.336 1008.94 207.497C1009.73 207.707 1010.13 207.976 1010.13 208.303C1010.13 208.732 1009.91 208.947 1009.47 208.947C1009.27 208.947 1008.93 208.896 1008.44 208.793C1007.95 208.686 1007.57 208.635 1007.31 208.64C1006.54 208.649 1005.9 208.837 1005.37 209.204C1004.82 209.58 1004.54 210.036 1004.54 210.573C1004.54 210.979 1004.91 211.264 1005.63 211.43C1005.9 211.494 1006.42 211.552 1007.19 211.606C1008.31 211.689 1009.18 212.041 1009.81 212.661C1010.39 213.227 1010.68 213.918 1010.68 214.733C1010.68 215.896 1010.14 216.823 1009.06 217.517C1008.13 218.117 1007.05 218.417 1005.82 218.417C1004.93 218.417 1004.11 218.247 1003.37 217.905C1002.46 217.485 1002 216.909 1001.98 216.176ZM1017.32 211.76C1017.22 211.76 1017.09 211.755 1016.95 211.745C1016.82 211.735 1016.7 211.73 1016.59 211.73C1016.48 211.73 1016.15 211.767 1015.6 211.84L1015.74 216.169L1015.74 216.491L1015.75 216.865C1015.77 217.934 1015.51 218.469 1014.98 218.469C1014.79 218.469 1014.62 218.405 1014.47 218.278C1014.33 218.151 1014.26 217.993 1014.26 217.802C1014.26 217.617 1014.26 217.338 1014.28 216.967C1014.29 216.596 1014.3 216.318 1014.3 216.132L1014.15 211.855C1013.8 211.84 1013.26 211.799 1012.53 211.73C1012.09 211.672 1011.88 211.43 1011.88 211.005C1011.88 210.791 1011.94 210.612 1012.07 210.471C1012.21 210.329 1012.37 210.258 1012.58 210.258L1014.12 210.383C1014.12 210.134 1014.11 209.802 1014.08 209.387C1014.06 208.967 1014.05 208.664 1014.05 208.479C1014.05 208.273 1014.12 208.105 1014.26 207.973C1014.41 207.836 1014.58 207.768 1014.78 207.768C1015.22 207.768 1015.48 208.127 1015.55 208.845C1015.57 209.025 1015.58 209.243 1015.58 209.497L1015.56 209.921L1015.55 210.375C1016.16 210.297 1016.51 210.258 1016.59 210.258C1017.1 210.258 1017.43 210.283 1017.59 210.332C1017.89 210.429 1018.04 210.659 1018.04 211.02C1018.04 211.235 1017.97 211.413 1017.83 211.555C1017.7 211.691 1017.53 211.76 1017.32 211.76ZM1025.21 218.483C1025.12 218.483 1024.95 218.376 1024.71 218.161C1024.49 217.961 1024.33 217.783 1024.22 217.626C1023.75 217.88 1023.34 218.071 1022.98 218.198C1022.62 218.33 1022.33 218.396 1022.09 218.396C1020.94 218.396 1020.11 218.073 1019.59 217.429C1019.1 216.823 1018.85 215.896 1018.85 214.646C1018.85 213.464 1019.25 212.453 1020.06 211.613C1020.88 210.773 1021.85 210.354 1022.98 210.354C1023.4 210.354 1023.88 210.463 1024.41 210.683C1025.07 210.957 1025.4 211.286 1025.4 211.672C1025.4 211.804 1025.36 211.921 1025.26 212.023C1025.21 212.209 1025.17 212.514 1025.14 212.939C1025.12 213.364 1025.1 213.908 1025.1 214.572C1025.09 215.178 1025.13 215.656 1025.22 216.008C1025.27 216.223 1025.42 216.652 1025.68 217.297C1025.72 217.385 1025.77 217.514 1025.85 217.685L1025.9 217.81C1025.9 218.005 1025.83 218.166 1025.69 218.293C1025.55 218.42 1025.39 218.483 1025.21 218.483ZM1023.69 213.393C1023.69 213.183 1023.7 212.956 1023.73 212.712C1023.76 212.463 1023.8 212.199 1023.85 211.921C1023.67 211.828 1023.51 211.76 1023.38 211.716C1023.26 211.672 1023.15 211.65 1023.08 211.65C1022.32 211.65 1021.66 211.96 1021.11 212.58C1020.57 213.195 1020.29 213.906 1020.29 214.711C1020.29 215.512 1020.43 216.113 1020.72 216.513C1021 216.914 1021.42 217.114 1021.99 217.114C1022.46 217.114 1022.86 217.028 1023.19 216.857C1023.36 216.765 1023.61 216.579 1023.92 216.301C1023.77 215.007 1023.69 214.038 1023.69 213.393ZM1032.07 211.76C1031.97 211.76 1031.84 211.755 1031.7 211.745C1031.57 211.735 1031.45 211.73 1031.34 211.73C1031.23 211.73 1030.9 211.767 1030.35 211.84L1030.49 216.169L1030.49 216.491L1030.5 216.865C1030.52 217.934 1030.27 218.469 1029.73 218.469C1029.54 218.469 1029.37 218.405 1029.22 218.278C1029.08 218.151 1029.01 217.993 1029.01 217.802C1029.01 217.617 1029.02 217.338 1029.03 216.967C1029.04 216.596 1029.05 216.318 1029.05 216.132L1028.91 211.855C1028.55 211.84 1028.01 211.799 1027.28 211.73C1026.84 211.672 1026.63 211.43 1026.63 211.005C1026.63 210.791 1026.69 210.612 1026.83 210.471C1026.96 210.329 1027.13 210.258 1027.33 210.258L1028.87 210.383C1028.87 210.134 1028.86 209.802 1028.83 209.387C1028.81 208.967 1028.8 208.664 1028.8 208.479C1028.8 208.273 1028.87 208.105 1029.02 207.973C1029.16 207.836 1029.33 207.768 1029.54 207.768C1029.97 207.768 1030.23 208.127 1030.3 208.845C1030.32 209.025 1030.33 209.243 1030.33 209.497L1030.31 209.921L1030.3 210.375C1030.91 210.297 1031.26 210.258 1031.34 210.258C1031.85 210.258 1032.18 210.283 1032.34 210.332C1032.64 210.429 1032.79 210.659 1032.79 211.02C1032.79 211.235 1032.72 211.413 1032.58 211.555C1032.45 211.691 1032.28 211.76 1032.07 211.76ZM1040.22 213.723C1040.22 214.074 1040.22 214.602 1040.23 215.305C1040.23 216.008 1040.24 216.535 1040.24 216.887C1040.24 216.994 1040.24 217.158 1040.26 217.377C1040.28 217.597 1040.29 217.761 1040.29 217.868C1040.29 218.078 1040.22 218.249 1040.07 218.381C1039.93 218.518 1039.76 218.586 1039.55 218.586C1039.18 218.586 1038.94 218.354 1038.84 217.89C1038.23 218.208 1037.52 218.366 1036.73 218.366C1036.09 218.366 1035.56 218.225 1035.14 217.941C1034.67 217.629 1034.4 217.172 1034.31 216.572C1034.12 215.278 1034.02 214.125 1034.02 213.115C1034.02 212.446 1034.1 211.684 1034.24 210.83C1034.31 210.405 1034.54 210.192 1034.94 210.192C1035.15 210.192 1035.33 210.261 1035.47 210.397C1035.61 210.529 1035.68 210.7 1035.68 210.91C1035.68 211.135 1035.64 211.494 1035.57 211.987C1035.5 212.48 1035.47 212.856 1035.47 213.115C1035.47 213.93 1035.49 214.628 1035.55 215.209C1035.6 215.791 1035.68 216.257 1035.79 216.608C1035.95 216.696 1036.11 216.765 1036.27 216.813C1036.42 216.857 1036.58 216.879 1036.73 216.879C1037.38 216.879 1038.07 216.774 1038.8 216.564L1038.79 215.078L1038.78 213.657C1038.78 212.602 1038.82 211.687 1038.92 210.91C1038.97 210.461 1039.21 210.236 1039.63 210.236C1039.84 210.236 1040.01 210.305 1040.16 210.441C1040.3 210.578 1040.36 210.749 1040.35 210.954L1040.22 213.723ZM1047 212.36C1046.73 212.36 1046.54 212.27 1046.43 212.089C1046.36 211.962 1046.3 211.699 1046.24 211.298C1045.88 211.391 1045.31 211.562 1044.55 211.811C1043.76 212.124 1043.37 212.509 1043.36 212.968C1043.51 213.022 1043.65 213.061 1043.8 213.085C1044.92 213.286 1045.75 213.562 1046.3 213.913C1047.1 214.426 1047.49 215.168 1047.49 216.14C1047.49 216.936 1047.15 217.536 1046.46 217.941C1045.89 218.273 1045.17 218.439 1044.29 218.439C1043.65 218.439 1043.04 218.332 1042.46 218.117C1041.71 217.844 1041.33 217.463 1041.33 216.975C1041.33 216.779 1041.41 216.608 1041.56 216.462C1041.72 216.315 1041.89 216.242 1042.09 216.242C1042.24 216.242 1042.44 216.359 1042.67 216.594C1042.79 216.706 1043.06 216.799 1043.47 216.872C1043.79 216.931 1044.07 216.96 1044.29 216.96C1044.7 216.96 1045.06 216.911 1045.38 216.813C1045.83 216.672 1046.06 216.447 1046.06 216.14C1046.06 215.476 1045.59 215.026 1044.67 214.792L1043.91 214.624C1043.26 214.482 1042.79 214.316 1042.52 214.125C1042.13 213.852 1041.93 213.439 1041.93 212.888C1041.93 211.867 1042.41 211.14 1043.37 210.705C1043.66 210.573 1044.13 210.417 1044.78 210.236C1045.42 210.051 1045.88 209.895 1046.16 209.768C1046.36 209.68 1046.58 209.636 1046.81 209.636C1047.02 209.636 1047.19 209.704 1047.33 209.841C1047.46 209.978 1047.53 210.156 1047.53 210.375C1047.53 210.517 1047.56 210.725 1047.62 210.998C1047.68 211.271 1047.71 211.479 1047.71 211.621C1047.71 211.84 1047.65 212.019 1047.51 212.155C1047.38 212.292 1047.21 212.36 1047 212.36Z" fill="black"/>
<path d="M1220.17 208.142C1220.1 208.142 1220.02 208.129 1219.94 208.105C1219.11 207.871 1218.32 207.753 1217.55 207.753C1217.15 207.753 1216.71 207.79 1216.24 207.863C1215.77 207.937 1215.26 208.049 1214.71 208.2C1214.75 208.518 1214.78 208.771 1214.78 208.962C1214.78 209.641 1214.73 210.573 1214.65 211.76L1217.86 211.452C1218.8 211.354 1219.38 211.306 1219.6 211.306C1219.81 211.306 1219.99 211.374 1220.14 211.511C1220.28 211.647 1220.36 211.831 1220.36 212.06C1220.36 212.504 1220.13 212.753 1219.68 212.807L1217.94 212.961L1214.56 213.269C1214.54 213.615 1214.52 213.945 1214.5 214.257C1214.5 214.565 1214.49 214.853 1214.49 215.122C1214.49 216.201 1214.57 216.835 1214.72 217.026C1214.84 217.163 1215.23 217.231 1215.87 217.231C1216.18 217.231 1216.63 217.224 1217.24 217.209C1217.85 217.189 1218.31 217.18 1218.61 217.18C1218.71 217.18 1218.86 217.165 1219.05 217.136C1219.24 217.102 1219.38 217.084 1219.47 217.084C1219.99 217.084 1220.25 217.338 1220.25 217.846C1220.25 218.256 1220.04 218.503 1219.62 218.586C1219.17 218.679 1218.17 218.725 1216.64 218.725C1215.13 218.725 1214.16 218.525 1213.73 218.125C1213.26 217.69 1213.03 216.689 1213.03 215.122C1213.03 214.809 1213.03 214.467 1213.05 214.096C1213.06 213.725 1213.08 213.325 1213.11 212.895C1213.05 212.783 1213.03 212.663 1213.03 212.536C1213.03 212.37 1213.07 212.221 1213.16 212.089C1213.26 210.678 1213.31 209.636 1213.31 208.962C1213.31 208.781 1213.29 208.518 1213.24 208.171C1213.19 207.819 1213.16 207.553 1213.16 207.373C1213.16 206.792 1213.41 206.501 1213.9 206.501C1214.1 206.501 1214.28 206.572 1214.42 206.713C1215.01 206.557 1215.56 206.44 1216.08 206.362C1216.6 206.284 1217.09 206.245 1217.55 206.245C1218.74 206.245 1219.69 206.386 1220.39 206.669C1220.72 206.801 1220.88 207.036 1220.88 207.373C1220.88 207.568 1220.82 207.741 1220.69 207.893C1220.55 208.059 1220.38 208.142 1220.17 208.142ZM1229.14 211.533C1229.08 212.25 1229.05 212.968 1229.05 213.686C1229.05 215.312 1229.13 216.54 1229.28 217.37C1229.29 217.438 1229.29 217.495 1229.29 217.539C1229.29 217.734 1229.22 217.895 1229.09 218.022C1228.95 218.149 1228.79 218.212 1228.61 218.212C1228.31 218.212 1228.09 217.993 1227.94 217.553C1227.59 217.812 1227.23 218.007 1226.85 218.139C1226.47 218.271 1226.08 218.337 1225.67 218.337C1224.66 218.337 1223.82 218 1223.15 217.326C1222.47 216.638 1222.13 215.754 1222.13 214.675C1222.13 213.371 1222.47 212.326 1223.16 211.54C1223.86 210.754 1224.75 210.361 1225.86 210.361C1226.42 210.361 1226.86 210.449 1227.17 210.625L1227.86 211.13C1227.93 209.074 1228.01 207.69 1228.1 206.977C1228.16 206.542 1228.38 206.325 1228.77 206.325C1229.21 206.325 1229.43 206.562 1229.43 207.036C1229.43 207.714 1229.33 209.213 1229.14 211.533ZM1225.89 211.723C1225.07 211.723 1224.45 211.967 1224.04 212.456C1223.63 212.939 1223.43 213.669 1223.43 214.646C1223.43 215.275 1223.65 215.817 1224.09 216.271C1224.54 216.726 1225.07 216.953 1225.67 216.953C1226.08 216.953 1226.42 216.877 1226.71 216.726C1226.87 216.638 1227.14 216.435 1227.52 216.118C1227.59 216.054 1227.66 215.979 1227.73 215.891L1227.71 214.624L1227.72 213.774L1227.73 212.91C1227.55 212.514 1227.3 212.219 1226.99 212.023C1226.69 211.823 1226.32 211.723 1225.89 211.723ZM1232.61 208.728C1232.38 208.728 1232.17 208.645 1232 208.479C1231.83 208.312 1231.75 208.112 1231.75 207.878C1231.75 207.644 1231.83 207.443 1232 207.277C1232.17 207.111 1232.38 207.028 1232.61 207.028C1232.84 207.028 1233.04 207.111 1233.21 207.277C1233.38 207.443 1233.47 207.644 1233.47 207.878C1233.47 208.112 1233.38 208.312 1233.21 208.479C1233.04 208.645 1232.84 208.728 1232.61 208.728ZM1232.94 214.675C1232.94 214.968 1232.95 215.407 1232.96 215.993C1232.98 216.574 1232.99 217.011 1232.99 217.304C1232.99 217.519 1232.93 217.695 1232.79 217.832C1232.66 217.968 1232.49 218.037 1232.27 218.037C1232.06 218.037 1231.89 217.968 1231.75 217.832C1231.62 217.695 1231.56 217.519 1231.56 217.304C1231.56 217.011 1231.55 216.574 1231.53 215.993C1231.51 215.407 1231.5 214.968 1231.5 214.675C1231.5 214.216 1231.53 213.645 1231.58 212.961C1231.63 212.272 1231.65 211.699 1231.65 211.24C1231.65 211.02 1231.72 210.842 1231.85 210.705C1231.99 210.568 1232.16 210.5 1232.37 210.5C1232.58 210.5 1232.75 210.568 1232.88 210.705C1233.02 210.842 1233.09 211.02 1233.09 211.24C1233.09 211.699 1233.06 212.272 1233.01 212.961C1232.96 213.645 1232.94 214.216 1232.94 214.675ZM1240.32 211.76C1240.21 211.76 1240.09 211.755 1239.95 211.745C1239.81 211.735 1239.69 211.73 1239.59 211.73C1239.48 211.73 1239.15 211.767 1238.59 211.84L1238.73 216.169L1238.74 216.491L1238.75 216.865C1238.77 217.934 1238.51 218.469 1237.98 218.469C1237.78 218.469 1237.61 218.405 1237.47 218.278C1237.32 218.151 1237.25 217.993 1237.25 217.802C1237.25 217.617 1237.26 217.338 1237.28 216.967C1237.29 216.596 1237.3 216.318 1237.3 216.132L1237.15 211.855C1236.79 211.84 1236.25 211.799 1235.53 211.73C1235.09 211.672 1234.87 211.43 1234.87 211.005C1234.87 210.791 1234.94 210.612 1235.07 210.471C1235.2 210.329 1235.37 210.258 1235.58 210.258L1237.11 210.383C1237.11 210.134 1237.1 209.802 1237.08 209.387C1237.06 208.967 1237.05 208.664 1237.05 208.479C1237.05 208.273 1237.12 208.105 1237.26 207.973C1237.4 207.836 1237.58 207.768 1237.78 207.768C1238.22 207.768 1238.48 208.127 1238.55 208.845C1238.56 209.025 1238.57 209.243 1238.57 209.497L1238.56 209.921L1238.55 210.375C1239.16 210.297 1239.5 210.258 1239.59 210.258C1240.1 210.258 1240.43 210.283 1240.59 210.332C1240.88 210.429 1241.03 210.659 1241.03 211.02C1241.03 211.235 1240.96 211.413 1240.83 211.555C1240.7 211.691 1240.53 211.76 1240.32 211.76ZM1248.21 218.483C1248.12 218.483 1247.95 218.376 1247.71 218.161C1247.49 217.961 1247.32 217.783 1247.21 217.626C1246.75 217.88 1246.33 218.071 1245.98 218.198C1245.62 218.33 1245.32 218.396 1245.08 218.396C1243.94 218.396 1243.11 218.073 1242.59 217.429C1242.09 216.823 1241.85 215.896 1241.85 214.646C1241.85 213.464 1242.25 212.453 1243.06 211.613C1243.88 210.773 1244.85 210.354 1245.98 210.354C1246.4 210.354 1246.88 210.463 1247.41 210.683C1248.07 210.957 1248.4 211.286 1248.4 211.672C1248.4 211.804 1248.35 211.921 1248.25 212.023C1248.21 212.209 1248.17 212.514 1248.14 212.939C1248.11 213.364 1248.1 213.908 1248.09 214.572C1248.09 215.178 1248.13 215.656 1248.22 216.008C1248.27 216.223 1248.42 216.652 1248.68 217.297C1248.71 217.385 1248.77 217.514 1248.85 217.685L1248.89 217.81C1248.89 218.005 1248.82 218.166 1248.69 218.293C1248.55 218.42 1248.39 218.483 1248.21 218.483ZM1246.69 213.393C1246.69 213.183 1246.7 212.956 1246.72 212.712C1246.75 212.463 1246.79 212.199 1246.85 211.921C1246.67 211.828 1246.51 211.76 1246.38 211.716C1246.25 211.672 1246.15 211.65 1246.07 211.65C1245.32 211.65 1244.66 211.96 1244.11 212.58C1243.56 213.195 1243.29 213.906 1243.29 214.711C1243.29 215.512 1243.43 216.113 1243.71 216.513C1244 216.914 1244.42 217.114 1244.99 217.114C1245.46 217.114 1245.85 217.028 1246.18 216.857C1246.36 216.765 1246.6 216.579 1246.92 216.301C1246.77 215.007 1246.69 214.038 1246.69 213.393ZM1255.86 212.587C1255.83 213.198 1255.59 213.503 1255.13 213.503C1254.71 213.503 1254.5 213.261 1254.5 212.778C1254.5 212.685 1254.5 212.514 1254.48 212.265L1254.46 211.65C1253.69 211.743 1253.07 211.96 1252.61 212.302C1252.17 212.619 1251.81 213.098 1251.52 213.737L1251.54 217.751C1251.54 218.244 1251.29 218.491 1250.81 218.491C1250.38 218.491 1250.17 218.244 1250.17 217.751V212.609C1250.17 212.448 1250.17 212.207 1250.18 211.884C1250.2 211.562 1250.2 211.32 1250.2 211.159C1250.2 210.666 1250.42 210.419 1250.85 210.419C1251.33 210.419 1251.57 210.825 1251.57 211.635C1252.51 210.732 1253.55 210.28 1254.69 210.28C1255.09 210.28 1255.38 210.429 1255.58 210.727C1255.77 211.025 1255.87 211.474 1255.87 212.075C1255.87 212.329 1255.87 212.5 1255.86 212.587Z" fill="black"/>
<path d="M1212 220.629H1256.36V221.911H1212V220.629Z" fill="black"/>
<rect x="1315.5" y="56.5" width="29" height="30" rx="4.5" fill="#F4F4F4" stroke="black" stroke-width="3"/>
<path d="M1335.17 68.1196C1334.52 68.9106 1334.02 69.5625 1333.66 70.0752L1332.75 71.4229C1332.39 71.9307 1332.06 72.3579 1331.75 72.7046L1333.36 75.063C1334 75.9956 1334.56 76.7573 1335.06 77.3481C1335.19 77.5093 1335.26 77.6777 1335.26 77.8535C1335.26 78.0586 1335.19 78.2368 1335.03 78.3882C1334.89 78.5396 1334.71 78.6152 1334.51 78.6152C1334.32 78.6152 1334.15 78.5396 1333.99 78.3882C1333.62 78.0464 1333.25 77.5825 1332.86 76.9966L1331.88 75.4878L1330.73 73.8398L1328.21 76.7549L1326.86 78.2637C1326.7 78.4248 1326.52 78.5054 1326.33 78.5054C1326.12 78.5054 1325.95 78.4297 1325.8 78.2783C1325.65 78.127 1325.57 77.9487 1325.57 77.7437C1325.57 77.5679 1325.63 77.4019 1325.76 77.2456L1327.08 75.7734L1329.83 72.5874C1329.29 71.8696 1328.72 71.1494 1328.11 70.4268L1327.26 69.2769C1326.92 68.8179 1326.6 68.4663 1326.31 68.2222C1326.11 68.0513 1326 67.8535 1326 67.6289C1326 67.4287 1326.07 67.2505 1326.22 67.0942C1326.36 66.938 1326.53 66.8599 1326.74 66.8599C1327.16 66.8599 1327.69 67.3018 1328.33 68.1855C1328.53 68.4834 1328.84 68.9058 1329.25 69.4526C1329.8 70.1167 1330.33 70.7832 1330.84 71.4521L1332.51 69.123C1333.59 67.6143 1334.29 66.8599 1334.62 66.8599C1334.82 66.8599 1334.99 66.9355 1335.14 67.0869C1335.29 67.2383 1335.37 67.4165 1335.37 67.6216C1335.37 67.7925 1335.3 67.9585 1335.17 68.1196Z" fill="black"/>
<rect x="1118.5" y="932.5" width="226" height="57" rx="4.5" fill="black" stroke="black" stroke-width="3"/>
<path d="M1208.25 967.22C1207.8 967.22 1207.41 966.644 1207.08 965.491C1206.95 965.052 1206.8 964.283 1206.6 963.184C1206.11 963.252 1205.46 963.375 1204.65 963.55L1202.7 963.953C1202.46 964.593 1202.04 965.528 1201.45 966.758C1201.29 967.032 1201.08 967.168 1200.81 967.168C1200.62 967.168 1200.44 967.098 1200.28 966.956C1200.13 966.814 1200.06 966.639 1200.06 966.429C1200.06 966.194 1200.43 965.303 1201.16 963.755C1201.08 963.628 1201.04 963.482 1201.04 963.316C1201.04 962.92 1201.28 962.667 1201.76 962.554C1202.31 961.509 1203.02 960.308 1203.87 958.951C1205.02 957.1 1205.74 956.175 1206.03 956.175C1206.41 956.175 1206.68 956.443 1206.82 956.98L1207.28 959.441L1208.37 964.532L1208.79 965.689C1208.93 966.084 1209 966.348 1209 966.48C1209 966.69 1208.92 966.866 1208.77 967.007C1208.62 967.149 1208.45 967.22 1208.25 967.22ZM1205.67 958.848L1203.57 962.225C1204.16 962.073 1205.06 961.89 1206.26 961.675L1205.67 958.848ZM1215.99 960.76C1215.88 960.76 1215.76 960.755 1215.62 960.745C1215.48 960.735 1215.36 960.73 1215.26 960.73C1215.15 960.73 1214.82 960.767 1214.27 960.84L1214.41 965.169L1214.41 965.491L1214.42 965.865C1214.44 966.934 1214.18 967.469 1213.65 967.469C1213.46 967.469 1213.28 967.405 1213.14 967.278C1213 967.151 1212.93 966.993 1212.93 966.802C1212.93 966.617 1212.93 966.338 1212.95 965.967C1212.96 965.596 1212.97 965.318 1212.97 965.132L1212.82 960.855C1212.47 960.84 1211.92 960.799 1211.2 960.73C1210.76 960.672 1210.55 960.43 1210.55 960.005C1210.55 959.791 1210.61 959.612 1210.74 959.471C1210.88 959.329 1211.04 959.258 1211.25 959.258L1212.79 959.383C1212.79 959.134 1212.77 958.802 1212.75 958.387C1212.73 957.967 1212.72 957.664 1212.72 957.479C1212.72 957.273 1212.79 957.105 1212.93 956.973C1213.07 956.836 1213.25 956.768 1213.45 956.768C1213.89 956.768 1214.15 957.127 1214.22 957.845C1214.24 958.025 1214.24 958.243 1214.24 958.497L1214.23 958.921L1214.22 959.375C1214.83 959.297 1215.17 959.258 1215.26 959.258C1215.77 959.258 1216.1 959.283 1216.26 959.332C1216.56 959.429 1216.71 959.659 1216.71 960.02C1216.71 960.235 1216.64 960.413 1216.5 960.555C1216.37 960.691 1216.2 960.76 1215.99 960.76ZM1224.14 962.723C1224.14 963.074 1224.14 963.602 1224.15 964.305C1224.15 965.008 1224.15 965.535 1224.15 965.887C1224.15 965.994 1224.16 966.158 1224.18 966.377C1224.2 966.597 1224.21 966.761 1224.21 966.868C1224.21 967.078 1224.13 967.249 1223.99 967.381C1223.85 967.518 1223.68 967.586 1223.47 967.586C1223.1 967.586 1222.86 967.354 1222.75 966.89C1222.14 967.208 1221.44 967.366 1220.65 967.366C1220.01 967.366 1219.48 967.225 1219.06 966.941C1218.59 966.629 1218.32 966.172 1218.23 965.572C1218.04 964.278 1217.94 963.125 1217.94 962.115C1217.94 961.446 1218.02 960.684 1218.16 959.83C1218.23 959.405 1218.46 959.192 1218.86 959.192C1219.07 959.192 1219.24 959.261 1219.39 959.397C1219.53 959.529 1219.6 959.7 1219.6 959.91C1219.6 960.135 1219.56 960.494 1219.49 960.987C1219.42 961.48 1219.39 961.856 1219.39 962.115C1219.39 962.93 1219.41 963.628 1219.47 964.209C1219.52 964.791 1219.6 965.257 1219.71 965.608C1219.87 965.696 1220.03 965.765 1220.18 965.813C1220.34 965.857 1220.49 965.879 1220.65 965.879C1221.3 965.879 1221.99 965.774 1222.72 965.564L1222.71 964.078L1222.7 962.657C1222.7 961.602 1222.74 960.687 1222.84 959.91C1222.89 959.461 1223.13 959.236 1223.55 959.236C1223.76 959.236 1223.93 959.305 1224.07 959.441C1224.21 959.578 1224.28 959.749 1224.27 959.954L1224.14 962.723ZM1231.69 967.483C1231.6 967.483 1231.43 967.376 1231.19 967.161C1230.97 966.961 1230.8 966.783 1230.69 966.626C1230.23 966.88 1229.81 967.071 1229.46 967.198C1229.1 967.33 1228.8 967.396 1228.56 967.396C1227.42 967.396 1226.59 967.073 1226.07 966.429C1225.57 965.823 1225.33 964.896 1225.33 963.646C1225.33 962.464 1225.73 961.453 1226.54 960.613C1227.36 959.773 1228.33 959.354 1229.46 959.354C1229.88 959.354 1230.36 959.463 1230.88 959.683C1231.55 959.957 1231.88 960.286 1231.88 960.672C1231.88 960.804 1231.83 960.921 1231.73 961.023C1231.69 961.209 1231.65 961.514 1231.62 961.939C1231.59 962.364 1231.58 962.908 1231.57 963.572C1231.57 964.178 1231.61 964.656 1231.7 965.008C1231.75 965.223 1231.9 965.652 1232.16 966.297C1232.19 966.385 1232.25 966.514 1232.33 966.685L1232.37 966.81C1232.37 967.005 1232.3 967.166 1232.17 967.293C1232.03 967.42 1231.87 967.483 1231.69 967.483ZM1230.17 962.393C1230.17 962.183 1230.18 961.956 1230.2 961.712C1230.23 961.463 1230.27 961.199 1230.33 960.921C1230.15 960.828 1229.99 960.76 1229.86 960.716C1229.73 960.672 1229.63 960.65 1229.55 960.65C1228.79 960.65 1228.14 960.96 1227.59 961.58C1227.04 962.195 1226.77 962.906 1226.77 963.711C1226.77 964.512 1226.91 965.113 1227.19 965.513C1227.48 965.914 1227.9 966.114 1228.47 966.114C1228.94 966.114 1229.33 966.028 1229.66 965.857C1229.84 965.765 1230.08 965.579 1230.4 965.301C1230.25 964.007 1230.17 963.038 1230.17 962.393ZM1235.51 961.243L1235.4 964.883C1235.4 965.269 1235.38 965.835 1235.34 966.583C1235.29 967.071 1235.05 967.315 1234.62 967.315C1234.14 967.315 1233.9 967.066 1233.9 966.568C1233.9 965.977 1233.93 965.091 1233.98 963.909C1234.04 962.723 1234.06 961.834 1234.06 961.243C1234.06 960.472 1234.08 959.59 1234.1 958.599C1234.12 957.603 1234.14 956.719 1234.14 955.948C1234.14 955.459 1234.38 955.215 1234.85 955.215C1235.34 955.215 1235.58 955.459 1235.58 955.948C1235.58 956.719 1235.57 957.603 1235.54 958.599C1235.52 959.59 1235.51 960.472 1235.51 961.243ZM1239.16 957.728C1238.93 957.728 1238.72 957.645 1238.55 957.479C1238.38 957.312 1238.3 957.112 1238.3 956.878C1238.3 956.644 1238.38 956.443 1238.55 956.277C1238.72 956.111 1238.93 956.028 1239.16 956.028C1239.4 956.028 1239.6 956.111 1239.76 956.277C1239.93 956.443 1240.02 956.644 1240.02 956.878C1240.02 957.112 1239.93 957.312 1239.76 957.479C1239.6 957.645 1239.4 957.728 1239.16 957.728ZM1239.49 963.675C1239.49 963.968 1239.5 964.407 1239.51 964.993C1239.53 965.574 1239.54 966.011 1239.54 966.304C1239.54 966.519 1239.48 966.695 1239.34 966.832C1239.21 966.968 1239.04 967.037 1238.82 967.037C1238.61 967.037 1238.44 966.968 1238.3 966.832C1238.17 966.695 1238.11 966.519 1238.11 966.304C1238.11 966.011 1238.1 965.574 1238.08 964.993C1238.06 964.407 1238.06 963.968 1238.06 963.675C1238.06 963.216 1238.08 962.645 1238.13 961.961C1238.18 961.272 1238.2 960.699 1238.2 960.24C1238.2 960.02 1238.27 959.842 1238.4 959.705C1238.54 959.568 1238.71 959.5 1238.92 959.5C1239.13 959.5 1239.3 959.568 1239.43 959.705C1239.57 959.842 1239.64 960.02 1239.64 960.24C1239.64 960.699 1239.61 961.272 1239.56 961.961C1239.52 962.645 1239.49 963.216 1239.49 963.675ZM1248.01 961.075C1247.57 961.597 1247.02 962.354 1246.34 963.345C1245.55 964.498 1244.98 965.313 1244.61 965.792C1245.12 965.767 1245.57 965.755 1245.95 965.755C1246.14 965.755 1246.42 965.792 1246.8 965.865C1247.18 965.938 1247.46 965.975 1247.65 965.975C1247.86 965.975 1248.04 966.045 1248.17 966.187C1248.31 966.324 1248.38 966.5 1248.38 966.714C1248.38 966.934 1248.31 967.112 1248.17 967.249C1248.04 967.386 1247.86 967.454 1247.65 967.454C1247.46 967.454 1247.18 967.417 1246.8 967.344C1246.42 967.271 1246.14 967.234 1245.95 967.234C1244.85 967.234 1243.81 967.334 1242.82 967.535C1242.72 967.554 1242.63 967.564 1242.55 967.564C1242.08 967.564 1241.84 967.356 1241.84 966.941C1241.84 966.697 1241.96 966.463 1242.21 966.238C1243.48 965.086 1244.87 963.292 1246.37 960.855C1245.72 960.894 1245.25 960.914 1244.95 960.914C1244.23 960.914 1243.49 960.857 1242.73 960.745C1242.29 960.682 1242.08 960.44 1242.08 960.02C1242.08 959.805 1242.14 959.627 1242.27 959.485C1242.41 959.339 1242.57 959.266 1242.77 959.266C1243.01 959.266 1243.37 959.295 1243.86 959.354C1244.34 959.407 1244.71 959.434 1244.95 959.434C1245.29 959.434 1245.78 959.412 1246.45 959.368C1247.11 959.319 1247.61 959.295 1247.94 959.295C1248.36 959.295 1248.57 959.466 1248.57 959.808C1248.57 960.203 1248.38 960.625 1248.01 961.075ZM1255.76 967.483C1255.67 967.483 1255.5 967.376 1255.25 967.161C1255.03 966.961 1254.87 966.783 1254.76 966.626C1254.29 966.88 1253.88 967.071 1253.52 967.198C1253.17 967.33 1252.87 967.396 1252.63 967.396C1251.49 967.396 1250.66 967.073 1250.13 966.429C1249.64 965.823 1249.39 964.896 1249.39 963.646C1249.39 962.464 1249.8 961.453 1250.61 960.613C1251.42 959.773 1252.4 959.354 1253.52 959.354C1253.95 959.354 1254.42 959.463 1254.95 959.683C1255.62 959.957 1255.95 960.286 1255.95 960.672C1255.95 960.804 1255.9 960.921 1255.8 961.023C1255.75 961.209 1255.71 961.514 1255.68 961.939C1255.66 962.364 1255.65 962.908 1255.64 963.572C1255.64 964.178 1255.68 964.656 1255.77 965.008C1255.81 965.223 1255.97 965.652 1256.23 966.297C1256.26 966.385 1256.32 966.514 1256.4 966.685L1256.44 966.81C1256.44 967.005 1256.37 967.166 1256.23 967.293C1256.1 967.42 1255.94 967.483 1255.76 967.483ZM1254.23 962.393C1254.23 962.183 1254.25 961.956 1254.27 961.712C1254.3 961.463 1254.34 961.199 1254.4 960.921C1254.21 960.828 1254.06 960.76 1253.93 960.716C1253.8 960.672 1253.7 960.65 1253.62 960.65C1252.86 960.65 1252.21 960.96 1251.66 961.58C1251.11 962.195 1250.84 962.906 1250.84 963.711C1250.84 964.512 1250.98 965.113 1251.26 965.513C1251.54 965.914 1251.97 966.114 1252.54 966.114C1253 966.114 1253.4 966.028 1253.73 965.857C1253.9 965.765 1254.15 965.579 1254.47 965.301C1254.31 964.007 1254.23 963.038 1254.23 962.393ZM1263.41 961.587C1263.38 962.198 1263.13 962.503 1262.68 962.503C1262.26 962.503 1262.05 962.261 1262.05 961.778C1262.05 961.685 1262.04 961.514 1262.03 961.265L1262.01 960.65C1261.23 960.743 1260.62 960.96 1260.15 961.302C1259.72 961.619 1259.36 962.098 1259.07 962.737L1259.08 966.751C1259.08 967.244 1258.84 967.491 1258.36 967.491C1257.93 967.491 1257.71 967.244 1257.71 966.751V961.609C1257.71 961.448 1257.72 961.207 1257.73 960.884C1257.74 960.562 1257.75 960.32 1257.75 960.159C1257.75 959.666 1257.96 959.419 1258.39 959.419C1258.87 959.419 1259.11 959.825 1259.12 960.635C1260.06 959.732 1261.1 959.28 1262.24 959.28C1262.64 959.28 1262.93 959.429 1263.13 959.727C1263.32 960.025 1263.42 960.474 1263.42 961.075C1263.42 961.329 1263.42 961.5 1263.41 961.587Z" fill="white"/>
</g>
<rect x="1.5" y="1.5" width="1437" height="1021" stroke="black" stroke-width="3"/>
<defs>
<clipPath id="clip0_5_940">
<rect width="1440" height="1024" fill="white"/>
</clipPath>
</defs>
</svg>
